<svg width="148" height="84" viewBox="0 0 148 84" fill="none" xmlns="http://www.w3.org/2000/svg" xmlns:xlink="http://www.w3.org/1999/xlink">
<path d="M90.362,27.159C82.167,27.159 76.245,35.996 76.245,46.166C76.245,56.625 82.575,65.115 90.362,65.115C98.179,65.115 104.479,56.625 104.479,46.166C104.45,35.648 98.179,27.159 90.362,27.159ZM95.583,62.043C94.154,63.521 92.433,63.927 90.362,63.927C88.263,63.927 86.571,63.521 85.171,62.043C83.071,59.697 81.904,55.959 81.904,46.166C81.904,37.647 83.042,32.577 85.171,30.23C86.571,28.839 88.263,28.405 90.362,28.405C92.433,28.405 94.154,28.868 95.583,30.23C97.683,32.577 98.85,37.647 98.85,46.166C98.85,55.988 97.713,59.697 95.583,62.043Z" fill="#AA7138"/>
<path d="M130.088,52.801C130.088,58.016 127.637,63.028 121.075,63.028L117.05,63.028C116.875,63.028 116.758,63 116.758,62.826L116.758,29.448C116.758,29.245 116.846,29.245 117.05,29.245L120.842,29.245C120.929,29.245 120.929,28.028 120.842,28.028L107.425,28.028C107.367,28.028 107.367,29.245 107.425,29.245L111.304,29.245C111.392,29.245 111.479,29.245 111.479,29.448L111.479,62.826C111.479,63 111.392,63.028 111.304,63.028L107.425,63.028C107.367,63.028 107.367,64.245 107.425,64.245L130.993,64.245C131.079,64.245 131.138,64.216 131.138,64.101L131.138,52.801C131.079,52.685 130.088,52.685 130.088,52.801Z" fill="#AA7138"/>
<path d="M144.001,63.028C143.855,63.028 143.767,63 143.767,62.826L143.767,29.448C143.767,29.245 143.885,29.245 144.001,29.245L147.91,29.245C147.998,29.245 147.998,28.028 147.91,28.028L134.464,28.028C134.435,28.028 134.435,29.245 134.464,29.245L138.255,29.245C138.401,29.245 138.547,29.245 138.547,29.448L138.547,62.826C138.547,63 138.401,63.028 138.255,63.028L134.464,63.028C134.435,63.028 134.435,64.245 134.464,64.245L147.91,64.245C147.998,64.245 147.998,63.028 147.91,63.028L144.001,63.028Z" fill="#AA7138"/>
<path d="M25.786,28.173L25.786,39.531C25.786,39.617 24.824,39.617 24.824,39.531C24.824,33.591 22.14,29.245 15.869,29.245L15.665,29.245C15.461,29.245 15.373,29.245 15.373,29.448L15.373,62.826C15.373,63 15.461,63.028 15.665,63.028L19.457,63.028C19.544,63.028 19.544,64.245 19.457,64.245L6.127,64.245C6.04,64.245 6.04,63.028 6.127,63.028L9.919,63.028C10.065,63.028 10.182,63 10.182,62.826L10.182,29.448C10.182,29.245 10.094,29.245 9.919,29.245L9.744,29.245C3.415,29.245 1.052,33.591 1.052,39.502C1.052,39.588 0.061,39.588 0.061,39.502L0.061,28.173C0.061,28.115 0.09,28.028 0.206,28.028L25.699,28.028C25.786,28.028 25.786,28.115 25.786,28.173Z" fill="#AA7138"/>
<path d="M37.57,29.245L41.449,29.245C41.537,29.245 41.537,28.028 41.449,28.028L28.032,28.028C28.003,28.028 28.003,29.245 28.032,29.245L31.824,29.245C31.97,29.245 32.116,29.245 32.116,29.448L32.116,62.826C32.116,63 31.97,63.028 31.824,63.028L28.032,63.028C28.003,63.028 28.003,64.245 28.032,64.245L41.449,64.245C41.537,64.245 41.537,63.028 41.449,63.028L37.57,63.028C37.424,63.028 37.307,63 37.307,62.826L37.307,29.448C37.337,29.245 37.424,29.245 37.57,29.245Z" fill="#AA7138"/>
<path d="M9.744,79.543L7.031,79.543L7.031,82.064L6.068,82.064L6.068,76.298L7.031,76.298L7.031,78.761L9.773,78.761L9.773,76.298L10.735,76.298L10.735,82.064L9.773,82.064L9.773,79.543L9.744,79.543Z" fill="#AA7138"/>
<path d="M18.989,82.151C17.356,82.151 16.014,80.935 16.014,79.196C16.014,77.458 17.356,76.241 18.989,76.241C20.652,76.241 21.965,77.458 21.965,79.196C21.965,80.906 20.652,82.151 18.989,82.151ZM18.989,81.311C20.156,81.311 20.973,80.471 20.973,79.167C20.973,77.863 20.127,77.052 18.989,77.052C17.823,77.052 17.006,77.863 17.006,79.167C17.006,80.5 17.823,81.311 18.989,81.311Z" fill="#AA7138"/>
<path d="M26.982,76.327L31.036,76.327L31.036,77.11L29.49,77.11L29.49,82.093L28.528,82.093L28.528,77.11L26.982,77.11L26.982,76.327Z" fill="#AA7138"/>
<path d="M39.582,77.08L37.336,77.08L37.336,78.761L39.348,78.761L39.348,79.543L37.336,79.543L37.336,81.311L39.582,81.311L39.582,82.093L36.373,82.093L36.373,76.327L39.582,76.327L39.582,77.08Z" fill="#AA7138"/>
<path d="M46.086,76.327L46.086,81.34L48.04,81.34L48.04,82.093L45.124,82.093L45.124,76.327L46.086,76.327Z" fill="#AA7138"/>
<path d="M55.127,82.151C53.961,82.151 53.086,81.514 53.086,80.5L54.107,80.5C54.136,80.963 54.486,81.34 55.127,81.34C55.798,81.34 56.177,80.992 56.177,80.5C56.177,79.109 53.086,80.007 53.086,77.892C53.086,76.878 53.902,76.241 55.069,76.241C56.177,76.241 56.965,76.82 57.052,77.805L56.032,77.805C56.002,77.429 55.652,77.052 55.069,77.052C54.515,77.023 54.107,77.313 54.107,77.863C54.107,79.167 57.169,78.356 57.169,80.471C57.14,81.311 56.44,82.151 55.127,82.151Z" fill="#AA7138"/>
<path d="M71.957,77.602C71.987,77.167 71.724,76.965 71.374,76.965C70.995,76.965 70.762,77.225 70.762,77.515C70.762,77.834 70.937,78.095 71.345,78.529L72.891,80.036L73.474,79.051L74.495,79.051L73.737,80.326C73.678,80.442 73.591,80.557 73.532,80.673L74.932,82.064L73.678,82.064L72.949,81.34C72.395,81.89 71.753,82.151 70.937,82.151C69.682,82.151 68.837,81.456 68.837,80.384C68.837,79.601 69.274,78.935 70.207,78.587C69.887,78.211 69.77,77.892 69.77,77.486C69.77,76.733 70.382,76.153 71.374,76.153C72.395,76.153 72.92,76.791 72.862,77.573L71.957,77.573L71.957,77.602ZM72.337,80.731L70.791,79.196C70.12,79.456 69.799,79.862 69.799,80.384C69.799,80.934 70.237,81.369 70.937,81.369C71.52,81.369 71.957,81.166 72.337,80.731Z" fill="#AA7138"/>
<path d="M88.525,76.327C89.895,76.327 90.566,77.11 90.566,78.066C90.566,78.732 90.187,79.485 89.225,79.717L90.654,82.093L89.516,82.093L88.175,79.775L87.445,79.775L87.445,82.093L86.483,82.093L86.483,76.327L88.525,76.327ZM88.525,77.08L87.475,77.08L87.475,79.022L88.525,79.022C89.254,79.022 89.604,78.616 89.604,78.037C89.575,77.457 89.254,77.08 88.525,77.08Z" fill="#AA7138"/>
<path d="M99.374,77.08L97.129,77.08L97.129,78.761L99.141,78.761L99.141,79.543L97.129,79.543L97.129,81.311L99.374,81.311L99.374,82.093L96.166,82.093L96.166,76.327L99.374,76.327L99.374,77.08Z" fill="#AA7138"/>
<path d="M106.841,82.151C105.674,82.151 104.799,81.514 104.799,80.5L105.82,80.5C105.849,80.963 106.199,81.34 106.841,81.34C107.512,81.34 107.891,80.992 107.891,80.5C107.891,79.109 104.799,80.007 104.799,77.892C104.799,76.878 105.616,76.241 106.783,76.241C107.891,76.241 108.679,76.82 108.766,77.805L107.716,77.805C107.687,77.429 107.337,77.052 106.753,77.052C106.199,77.023 105.762,77.313 105.762,77.863C105.762,79.167 108.824,78.356 108.824,80.471C108.854,81.311 108.124,82.151 106.841,82.151Z" fill="#AA7138"/>
<path d="M117.02,82.151C115.387,82.151 114.045,80.935 114.045,79.196C114.045,77.458 115.387,76.241 117.02,76.241C118.683,76.241 119.996,77.458 119.996,79.196C119.966,80.906 118.654,82.151 117.02,82.151ZM117.02,81.311C118.158,81.311 119.004,80.471 119.004,79.167C119.004,77.863 118.158,77.052 117.02,77.052C115.854,77.052 115.037,77.863 115.037,79.167C115.008,80.5 115.854,81.311 117.02,81.311Z" fill="#AA7138"/>
<path d="M127.288,76.327C128.659,76.327 129.329,77.11 129.329,78.066C129.329,78.732 128.951,79.485 127.988,79.717L129.417,82.093L128.28,82.093L126.938,79.775L126.209,79.775L126.209,82.093L125.247,82.093L125.247,76.327L127.288,76.327ZM127.288,77.08L126.238,77.08L126.238,79.022L127.288,79.022C128.017,79.022 128.368,78.616 128.368,78.037C128.368,77.457 128.046,77.08 127.288,77.08Z" fill="#AA7138"/>
<path d="M134.667,76.327L138.721,76.327L138.721,77.11L137.175,77.11L137.175,82.093L136.212,82.093L136.212,77.11L134.667,77.11L134.667,76.327Z" fill="#AA7138"/>
<path d="M145.954,82.151C144.787,82.151 143.913,81.514 143.913,80.5L144.934,80.5C144.963,80.963 145.313,81.34 145.954,81.34C146.625,81.34 147.005,80.992 147.005,80.5C147.005,79.109 143.913,80.007 143.913,77.892C143.913,76.878 144.73,76.241 145.897,76.241C147.005,76.241 147.792,76.82 147.88,77.805L146.829,77.805C146.801,77.429 146.45,77.052 145.868,77.052C145.313,77.023 144.875,77.313 144.875,77.863C144.875,79.167 147.937,78.356 147.937,80.471C147.967,81.311 147.267,82.151 145.954,82.151Z" fill="#AA7138"/>
<path d="M80.388,0.56L63.616,56.625L53.933,29.447C53.874,29.273 53.991,29.244 54.166,29.244L58.366,29.244C58.424,29.244 58.454,28.926 58.454,28.636C58.454,28.346 58.424,28.027 58.366,28.027L43.753,28.027C43.666,28.027 43.666,29.244 43.753,29.244L47.924,29.244C48.041,29.244 48.128,29.244 48.187,29.273C48.245,29.302 48.274,29.36 48.303,29.447L61.312,64.998C61.341,65.085 61.604,65.114 61.866,65.114C62.129,65.114 62.362,65.085 62.362,64.998L81.642,0.56L80.388,0.56Z" fill="#AA7138"/>
<path d="M65.016,65.143L84.383,0.56L83.508,0.56L64.141,65.143L65.016,65.143Z" fill="#AA7138"/>
</svg>
