<svg width="52" height="50" viewBox="0 0 52 50" fill="none" xmlns="http://www.w3.org/2000/svg" xmlns:xlink="http://www.w3.org/1999/xlink">
<path d="M25.935,2.125C15.167,2.125 6.894,8.992 6.894,24.383C6.894,39.775 15.167,46.631 25.935,46.631C36.702,46.631 45.049,39.769 45.049,24.383C45.049,8.997 36.792,2.125 25.935,2.125ZM25.935,-0.434C41.187,-0.434 51.813,8.651 51.813,24.383C51.813,40.115 41.207,49.195 25.935,49.195C10.663,49.195 0.14,40.11 0.14,24.383C0.14,8.656 10.798,-0.434 25.935,-0.434Z" fill="#0047BA"/>
<path d="M25.935,2.125C15.167,2.125 6.894,8.992 6.894,24.383C6.894,39.775 15.167,46.631 25.935,46.631C36.702,46.631 45.049,39.769 45.049,24.383C45.049,8.997 36.792,2.125 25.935,2.125ZM25.935,-0.434C41.187,-0.434 51.813,8.651 51.813,24.383C51.813,40.115 41.207,49.195 25.935,49.195C10.663,49.195 0.14,40.11 0.14,24.383C0.14,8.656 10.798,-0.434 25.935,-0.434Z" fill="#0047BA"/>
</svg>
