<svg width="44" height="50" viewBox="0 0 44 50" fill="none" xmlns="http://www.w3.org/2000/svg" xmlns:xlink="http://www.w3.org/1999/xlink">
<path d="M40.273,49.195C29.782,36.792 17.213,23.476 5.422,10.869C5.354,13.432 5.208,17.595 5.208,24.939C5.208,30.899 5.484,45.525 5.834,48.293C5.045,48.073 4.231,47.957 3.412,47.947C2.551,47.967 1.695,48.083 0.86,48.293C1.413,45.043 2.316,27.293 2.316,18.145C2.316,9.411 2.316,2.691 2.102,-0.434L3.209,-0.434C14.457,11.833 29.703,28.535 38.133,37.07C38.133,24.656 38.133,11.152 37.575,0.468C38.337,0.686 39.125,0.804 39.918,0.819C40.669,0.806 41.413,0.688 42.131,0.468C41.724,4.562 41.025,18.292 41.025,23.686C41.025,30.758 41.171,46.076 41.239,49.195L40.273,49.195Z" fill="#0047BA"/>
<path d="M40.273,49.195C29.782,36.792 17.213,23.476 5.422,10.869C5.354,13.432 5.208,17.595 5.208,24.939C5.208,30.899 5.484,45.525 5.834,48.293C5.045,48.073 4.231,47.957 3.412,47.947C2.551,47.967 1.695,48.083 0.86,48.293C1.413,45.043 2.316,27.293 2.316,18.145C2.316,9.411 2.316,2.691 2.102,-0.434L3.209,-0.434C14.457,11.833 29.703,28.535 38.133,37.07C38.133,24.656 38.133,11.152 37.575,0.468C38.337,0.686 39.125,0.804 39.918,0.819C40.669,0.806 41.413,0.688 42.131,0.468C41.724,4.562 41.025,18.292 41.025,23.686C41.025,30.758 41.171,46.076 41.239,49.195L40.273,49.195Z" fill="#0047BA"/>
</svg>
