<svg width="56" height="50" viewBox="0 0 56 50" fill="none" xmlns="http://www.w3.org/2000/svg" xmlns:xlink="http://www.w3.org/1999/xlink">
<path d="M7.489,-0.434C13.753,12.604 20.262,24.792 27.324,37.761C30.085,32.357 41.052,12.394 47.816,-0.434L48.714,-0.434C50.802,17.311 52.164,32.43 54.372,48.319C52.234,47.858 50.022,47.858 47.884,48.319C46.918,35.911 45.953,24.409 44.502,12.557L44.366,12.557C38.103,24.137 31.735,35.507 26.285,47.974L25.643,47.974C20.262,36.467 13.91,24.551 7.897,12.557L7.761,12.557C6.446,23.995 4.514,40.488 4.452,48.319C3.662,48.105 2.848,47.989 2.03,47.974C1.213,47.988 0.401,48.105 -0.387,48.319C2.03,33.007 4.791,14.287 6.31,-0.434L7.479,-0.434Z" fill="#0047BA"/>
<path d="M7.489,-0.434C13.753,12.604 20.262,24.792 27.324,37.761C30.085,32.357 41.052,12.394 47.816,-0.434L48.714,-0.434C50.802,17.311 52.164,32.43 54.372,48.319C52.234,47.858 50.022,47.858 47.884,48.319C46.918,35.911 45.953,24.409 44.502,12.557L44.366,12.557C38.103,24.137 31.735,35.507 26.285,47.974L25.643,47.974C20.262,36.467 13.91,24.551 7.897,12.557L7.761,12.557C6.446,23.995 4.514,40.488 4.452,48.319C3.662,48.105 2.848,47.989 2.03,47.974C1.213,47.988 0.401,48.105 -0.387,48.319C2.03,33.007 4.791,14.287 6.31,-0.434L7.479,-0.434Z" fill="#0047BA"/>
</svg>
