<svg width="8" height="50" viewBox="0 0 8 50" fill="none" xmlns="http://www.w3.org/2000/svg" xmlns:xlink="http://www.w3.org/1999/xlink">
<path d="M1.326,18.423C1.326,12.457 1.054,6.434 0.804,0.468C3.041,0.939 5.352,0.939 7.589,0.468C7.307,6.434 7.036,12.457 7.036,18.423L7.036,30.349C7.036,36.304 7.307,42.333 7.589,48.293C5.351,47.829 3.042,47.829 0.804,48.293C1.08,42.333 1.326,36.304 1.326,30.349L1.326,18.423Z" fill="#0047BA"/>
<path d="M1.326,18.423C1.326,12.457 1.054,6.434 0.804,0.468C3.041,0.939 5.352,0.939 7.589,0.468C7.307,6.434 7.036,12.457 7.036,18.423L7.036,30.349C7.036,36.304 7.307,42.333 7.589,48.293C5.351,47.829 3.042,47.829 0.804,48.293C1.08,42.333 1.326,36.304 1.326,30.349L1.326,18.423Z" fill="#0047BA"/>
</svg>
