<svg width="36" height="50" viewBox="0 0 36 50" fill="none" xmlns="http://www.w3.org/2000/svg" xmlns:xlink="http://www.w3.org/1999/xlink">
<path d="M6.054,22.375C7.583,22.649 9.134,22.763 10.685,22.716C16.337,22.716 23.864,20.362 23.864,12.111C23.864,4.84 17.856,3.036 13.165,3.036C10.929,3.032 8.695,3.148 6.472,3.383C6.258,8.441 6.054,13.437 6.054,18.423L6.054,22.375ZM0.391,18.423C0.391,12.457 0.121,6.434 -0.129,0.468C2.479,0.677 5.09,0.819 7.735,0.819C10.383,0.819 12.981,0.468 15.607,0.468C23.394,0.468 29.955,3.178 29.955,11.424C29.955,20.362 21.051,23.969 15.806,24.656C19.192,28.886 30.713,43.795 34.721,48.293C33.35,48.077 31.964,47.961 30.576,47.947C29.237,47.961 27.901,48.076 26.579,48.293C23.812,44.068 14.636,31.308 8.695,25.285L6.086,25.285L6.086,30.349C6.086,36.304 6.369,42.333 6.639,48.293C4.409,47.832 2.109,47.832 -0.121,48.293C0.151,42.333 0.402,36.304 0.402,30.349L0.391,18.423Z" fill="#0047BA"/>
<path d="M6.054,22.375C7.583,22.649 9.134,22.763 10.685,22.716C16.337,22.716 23.864,20.362 23.864,12.111C23.864,4.84 17.856,3.036 13.165,3.036C10.929,3.032 8.695,3.148 6.472,3.383C6.258,8.441 6.054,13.437 6.054,18.423L6.054,22.375ZM0.391,18.423C0.391,12.457 0.121,6.434 -0.129,0.468C2.479,0.677 5.09,0.819 7.735,0.819C10.383,0.819 12.981,0.468 15.607,0.468C23.394,0.468 29.955,3.178 29.955,11.424C29.955,20.362 21.051,23.969 15.806,24.656C19.192,28.886 30.713,43.795 34.721,48.293C33.35,48.077 31.964,47.961 30.576,47.947C29.237,47.961 27.901,48.076 26.579,48.293C23.812,44.068 14.636,31.308 8.695,25.285L6.086,25.285L6.086,30.349C6.086,36.304 6.369,42.333 6.639,48.293C4.409,47.832 2.109,47.832 -0.121,48.293C0.151,42.333 0.402,36.304 0.402,30.349L0.391,18.423Z" fill="#0047BA"/>
</svg>
