<svg width="148" height="18" viewBox="0 0 148 18" fill="none" xmlns="http://www.w3.org/2000/svg" xmlns:xlink="http://www.w3.org/1999/xlink">
<path d="M6.148,11.794C6.03,11.794 5.994,11.842 5.947,11.983L4.717,15.117C4.492,15.685 4.374,16.241 4.374,16.512C4.374,16.926 4.575,17.222 5.285,17.222L5.627,17.222C5.899,17.222 5.97,17.269 5.97,17.411C5.97,17.6 5.828,17.636 5.58,17.636C4.847,17.636 3.866,17.565 3.156,17.565C2.908,17.565 1.642,17.636 0.46,17.636C0.164,17.636 0.022,17.589 0.022,17.411C0.022,17.269 0.117,17.222 0.294,17.222C0.495,17.222 0.826,17.198 1.004,17.175C2.056,17.033 2.494,16.264 2.943,15.117L8.678,0.939C8.95,0.277 9.092,0.028 9.317,0.028C9.518,0.028 9.66,0.229 9.884,0.761C10.428,2.015 14.094,11.168 15.549,14.644C16.424,16.702 17.074,17.021 17.559,17.139C17.902,17.21 18.245,17.234 18.517,17.234C18.706,17.234 18.812,17.257 18.812,17.423C18.812,17.612 18.611,17.648 17.76,17.648C16.932,17.648 15.265,17.648 13.432,17.6C13.018,17.577 12.746,17.577 12.746,17.411C12.746,17.269 12.841,17.222 13.065,17.21C13.219,17.163 13.385,16.962 13.266,16.678L11.434,11.972C11.386,11.853 11.315,11.818 11.209,11.818L6.148,11.794ZM10.807,10.647C10.925,10.647 10.949,10.576 10.925,10.505L8.868,4.877C8.844,4.782 8.82,4.676 8.749,4.676C8.678,4.676 8.631,4.794 8.607,4.877L6.503,10.482C6.479,10.576 6.503,10.635 6.597,10.635L10.807,10.647Z" fill="#6F683B"/>
<path d="M23.767,14.514C23.814,16.3 24.11,16.891 24.571,17.057C24.961,17.199 25.399,17.21 25.754,17.21C26.002,17.21 26.144,17.258 26.144,17.4C26.144,17.589 25.943,17.624 25.612,17.624C24.122,17.624 23.211,17.553 22.774,17.553C22.573,17.553 21.497,17.624 20.302,17.624C20.007,17.624 19.806,17.601 19.806,17.4C19.806,17.258 19.948,17.21 20.172,17.21C20.468,17.21 20.882,17.187 21.201,17.092C21.792,16.903 21.887,16.253 21.911,14.254L22.112,0.785C22.112,0.324 22.183,0.005 22.407,0.005C22.656,0.005 22.868,0.301 23.247,0.714C23.519,1.01 26.995,4.664 30.33,7.987C31.879,9.536 34.965,12.835 35.356,13.202L35.474,13.202L35.249,2.938C35.226,1.542 35.025,1.105 34.469,0.88C34.126,0.738 33.582,0.738 33.251,0.738C32.979,0.738 32.884,0.667 32.884,0.537C32.884,0.348 33.133,0.336 33.476,0.336C34.658,0.336 35.758,0.407 36.243,0.407C36.491,0.407 37.366,0.336 38.478,0.336C38.773,0.336 39.01,0.36 39.01,0.537C39.01,0.679 38.868,0.738 38.596,0.738C38.371,0.738 38.182,0.738 37.91,0.809C37.271,0.998 37.082,1.471 37.07,2.748L36.822,17.175C36.822,17.672 36.727,17.884 36.526,17.884C36.278,17.884 35.994,17.636 35.746,17.388C34.303,16.016 31.382,13.024 29.006,10.671C26.511,8.2 23.98,5.409 23.566,4.983L23.495,4.983L23.767,14.514Z" fill="#6F683B"/>
<path d="M43.917,11.794C43.799,11.794 43.763,11.842 43.716,11.984L42.474,15.105C42.25,15.673 42.131,16.229 42.131,16.501C42.131,16.915 42.332,17.21 43.042,17.21L43.385,17.21C43.657,17.21 43.728,17.258 43.728,17.399C43.728,17.589 43.586,17.624 43.338,17.624C42.604,17.624 41.623,17.553 40.913,17.553C40.665,17.553 39.4,17.624 38.217,17.624C37.922,17.624 37.78,17.577 37.78,17.399C37.78,17.258 37.874,17.21 38.052,17.21C38.253,17.21 38.584,17.187 38.761,17.163C39.814,17.021 40.251,16.252 40.701,15.105L46.436,0.927C46.708,0.265 46.85,0.017 47.074,0.017C47.275,0.017 47.417,0.218 47.642,0.75C48.186,2.003 51.852,11.156 53.306,14.632C54.181,16.69 54.832,17.009 55.316,17.127C55.659,17.198 56.002,17.222 56.274,17.222C56.463,17.222 56.57,17.246 56.57,17.411C56.57,17.6 56.369,17.636 55.517,17.636C54.69,17.636 53.022,17.636 51.189,17.589C50.776,17.565 50.504,17.565 50.504,17.399C50.504,17.258 50.598,17.21 50.823,17.198C50.977,17.151 51.142,16.95 51.024,16.666L49.191,11.96C49.144,11.842 49.073,11.806 48.966,11.806L43.917,11.794ZM48.576,10.647C48.694,10.647 48.718,10.576 48.694,10.505L46.637,4.877C46.613,4.782 46.589,4.676 46.519,4.676C46.448,4.676 46.4,4.794 46.377,4.877L44.272,10.482C44.248,10.576 44.272,10.636 44.366,10.636L48.576,10.647Z" fill="#6F683B"/>
<path d="M61.548,14.514C61.596,16.3 61.891,16.891 62.352,17.057C62.743,17.199 63.18,17.21 63.535,17.21C63.783,17.21 63.925,17.258 63.925,17.4C63.925,17.589 63.724,17.624 63.393,17.624C61.903,17.624 60.992,17.553 60.555,17.553C60.354,17.553 59.278,17.624 58.083,17.624C57.788,17.624 57.587,17.601 57.587,17.4C57.587,17.258 57.729,17.21 57.953,17.21C58.249,17.21 58.663,17.187 58.982,17.092C59.573,16.903 59.668,16.253 59.692,14.254L59.893,0.785C59.893,0.324 59.964,0.005 60.188,0.005C60.437,0.005 60.65,0.301 61.028,0.714C61.3,1.01 64.776,4.664 68.111,7.987C69.66,9.536 72.747,12.835 73.137,13.202L73.255,13.202L73.03,2.938C73.007,1.542 72.806,1.105 72.25,0.88C71.907,0.738 71.363,0.738 71.032,0.738C70.76,0.738 70.665,0.667 70.665,0.537C70.665,0.348 70.914,0.336 71.257,0.336C72.439,0.336 73.539,0.407 74.024,0.407C74.272,0.407 75.147,0.336 76.259,0.336C76.554,0.336 76.791,0.36 76.791,0.537C76.791,0.679 76.649,0.738 76.377,0.738C76.152,0.738 75.963,0.738 75.691,0.809C75.052,0.998 74.863,1.471 74.851,2.748L74.603,17.175C74.603,17.672 74.509,17.884 74.307,17.884C74.059,17.884 73.775,17.636 73.527,17.388C72.084,16.016 69.164,13.024 66.787,10.671C64.292,8.2 61.761,5.409 61.347,4.983L61.276,4.983L61.548,14.514Z" fill="#6F683B"/>
<path d="M84.264,1.613L80.859,1.708C79.534,1.755 78.99,1.861 78.647,2.37C78.423,2.713 78.304,2.985 78.257,3.174C78.21,3.363 78.139,3.446 78.009,3.446C77.855,3.446 77.808,3.328 77.808,3.079C77.808,2.713 78.245,0.632 78.293,0.454C78.363,0.159 78.434,0.017 78.564,0.017C78.754,0.017 78.978,0.241 79.546,0.289C80.208,0.36 81.071,0.407 81.828,0.407L90.886,0.407C91.619,0.407 92.116,0.336 92.459,0.289C92.802,0.218 92.991,0.17 93.074,0.17C93.228,0.17 93.263,0.312 93.263,0.655C93.263,1.14 93.192,2.713 93.192,3.304C93.168,3.529 93.121,3.671 92.991,3.671C92.802,3.671 92.766,3.552 92.743,3.209L92.719,2.961C92.672,2.37 92.057,1.731 90.023,1.684L87.138,1.613L87.138,10.99C87.138,13.095 87.138,14.904 87.256,15.886C87.327,16.524 87.457,17.033 88.143,17.116C88.462,17.163 88.971,17.21 89.313,17.21C89.562,17.21 89.68,17.281 89.68,17.399C89.68,17.553 89.491,17.624 89.243,17.624C87.729,17.624 86.298,17.553 85.648,17.553C85.116,17.553 83.685,17.624 82.762,17.624C82.467,17.624 82.301,17.553 82.301,17.399C82.301,17.281 82.396,17.21 82.668,17.21C83.011,17.21 83.283,17.163 83.496,17.116C83.957,17.021 84.087,16.524 84.158,15.862C84.276,14.904 84.276,13.095 84.276,10.99L84.264,1.613Z" fill="#6F683B"/>
<path d="M96.787,11.794C96.669,11.794 96.633,11.842 96.586,11.983L95.356,15.117C95.131,15.685 95.013,16.241 95.013,16.512C95.013,16.926 95.214,17.222 95.924,17.222L96.267,17.222C96.539,17.222 96.61,17.269 96.61,17.411C96.61,17.6 96.468,17.636 96.219,17.636C95.486,17.636 94.505,17.565 93.795,17.565C93.547,17.565 92.282,17.636 91.099,17.636C90.803,17.636 90.662,17.589 90.662,17.411C90.662,17.269 90.756,17.222 90.934,17.222C91.135,17.222 91.466,17.198 91.643,17.175C92.695,17.033 93.133,16.264 93.582,15.117L99.318,0.939C99.589,0.277 99.731,0.028 99.956,0.028C100.157,0.028 100.299,0.229 100.524,0.761C101.068,2.015 104.733,11.168 106.188,14.644C107.063,16.702 107.713,17.021 108.198,17.139C108.541,17.21 108.884,17.234 109.156,17.234C109.345,17.234 109.452,17.257 109.452,17.423C109.452,17.612 109.251,17.648 108.399,17.648C107.571,17.648 105.904,17.648 104.071,17.6C103.657,17.577 103.385,17.577 103.385,17.411C103.385,17.269 103.48,17.222 103.705,17.21C103.858,17.163 104.024,16.962 103.906,16.678L102.073,11.972C102.025,11.853 101.955,11.818 101.848,11.818L96.787,11.794ZM101.446,10.647C101.564,10.647 101.588,10.576 101.564,10.505L99.507,4.877C99.483,4.782 99.459,4.676 99.388,4.676C99.318,4.676 99.27,4.794 99.247,4.877L97.142,10.482C97.118,10.576 97.142,10.635 97.236,10.635L101.446,10.647Z" fill="#6F683B"/>
<path d="M112.431,6.97C112.431,3.493 112.432,2.855 112.384,2.121C112.337,1.341 112.16,0.974 111.403,0.821C111.214,0.773 110.835,0.75 110.516,0.75C110.268,0.75 110.126,0.702 110.126,0.549C110.126,0.395 110.279,0.348 110.622,0.348C111.828,0.348 113.271,0.419 113.756,0.419C114.536,0.419 116.275,0.348 116.984,0.348C118.427,0.348 119.952,0.49 121.194,1.329C121.832,1.767 122.743,2.926 122.743,4.463C122.743,6.154 122.033,7.703 119.728,9.583C121.761,12.137 123.334,14.183 124.694,15.59C125.971,16.915 126.905,17.08 127.248,17.139C127.497,17.187 127.709,17.21 127.887,17.21C128.076,17.21 128.159,17.281 128.159,17.399C128.159,17.589 128.005,17.624 127.721,17.624L125.546,17.624C124.268,17.624 123.689,17.506 123.098,17.187C122.116,16.654 121.241,15.59 119.964,13.828C119.054,12.575 118.001,11.014 117.705,10.671C117.587,10.529 117.457,10.517 117.292,10.517L115.305,10.47C115.187,10.47 115.116,10.517 115.116,10.659L115.116,10.978C115.116,13.107 115.116,14.916 115.234,15.874C115.305,16.536 115.435,17.045 116.121,17.127C116.464,17.175 116.961,17.222 117.244,17.222C117.434,17.222 117.516,17.293 117.516,17.411C117.516,17.565 117.363,17.636 117.055,17.636C115.731,17.636 114.04,17.565 113.697,17.565C113.259,17.565 111.828,17.636 110.906,17.636C110.61,17.636 110.445,17.565 110.445,17.411C110.445,17.293 110.539,17.222 110.811,17.222C111.154,17.222 111.426,17.175 111.639,17.127C112.1,17.033 112.207,16.536 112.301,15.874C112.42,14.916 112.42,13.107 112.42,11.002L112.431,6.97ZM115.128,8.767C115.128,9.015 115.175,9.11 115.329,9.181C115.813,9.335 116.499,9.406 117.067,9.406C117.977,9.406 118.273,9.311 118.687,9.015C119.373,8.519 120.035,7.466 120.035,5.586C120.035,2.346 117.883,1.4 116.535,1.4C115.967,1.4 115.553,1.424 115.317,1.495C115.163,1.542 115.116,1.637 115.116,1.814L115.116,8.767L115.128,8.767Z" fill="#6F683B"/>
<path d="M135.278,11.794C135.159,11.794 135.124,11.842 135.077,11.983L133.847,15.117C133.622,15.685 133.504,16.241 133.504,16.512C133.504,16.926 133.705,17.222 134.414,17.222L134.757,17.222C135.029,17.222 135.1,17.269 135.1,17.411C135.1,17.6 134.958,17.636 134.71,17.636C133.977,17.636 132.995,17.565 132.286,17.565C132.037,17.565 130.772,17.636 129.59,17.636C129.294,17.636 129.152,17.589 129.152,17.411C129.152,17.269 129.247,17.222 129.424,17.222C129.625,17.222 129.956,17.198 130.134,17.175C131.186,17.033 131.624,16.264 132.073,15.117L137.808,0.939C138.08,0.277 138.222,0.028 138.447,0.028C138.648,0.028 138.79,0.229 139.014,0.761C139.558,2.015 143.224,11.168 144.678,14.644C145.554,16.702 146.204,17.021 146.689,17.139C147.032,17.21 147.375,17.234 147.647,17.234C147.836,17.234 147.942,17.257 147.942,17.423C147.942,17.612 147.741,17.648 146.89,17.648C146.062,17.648 144.395,17.648 142.562,17.6C142.148,17.577 141.876,17.577 141.876,17.411C141.876,17.269 141.971,17.222 142.195,17.21C142.349,17.163 142.515,16.962 142.396,16.678L140.563,11.972C140.516,11.853 140.445,11.818 140.339,11.818L135.278,11.794ZM139.948,10.647C140.067,10.647 140.09,10.576 140.067,10.505L138.009,4.877C137.986,4.782 137.962,4.676 137.891,4.676C137.82,4.676 137.773,4.794 137.749,4.877L135.644,10.482C135.62,10.576 135.644,10.635 135.739,10.635L139.948,10.647Z" fill="#6F683B"/>
</svg>
