<svg width="34" height="30" viewBox="0 0 34 30" fill="none" xmlns="http://www.w3.org/2000/svg" xmlns:xlink="http://www.w3.org/1999/xlink">
<path d="M19.914,10.949L18.72,10.949L18.72,10.405C19.595,10.405 20.304,9.695 20.304,8.82C20.304,7.945 19.583,7.236 18.72,7.236L18.708,7.236L13.304,7.236L13.292,7.236C12.417,7.236 11.708,7.945 11.708,8.82C11.708,9.695 12.429,10.405 13.292,10.405L13.292,10.949L12.098,10.949C10.348,10.949 8.929,12.368 8.929,14.118C8.929,15.868 10.348,17.299 12.098,17.299L12.098,18.34L19.926,18.34L19.926,17.299C21.676,17.299 23.095,15.868 23.095,14.118C23.083,12.368 21.664,10.949 19.914,10.949Z" fill="#ADA15C"/>
<path d="M-0.141,29.03L7.782,15.36L15.988,29.03L-0.141,29.03Z" fill="#ADA15C"/>
<path d="M32.129,29.03L24.207,15.36L16,29.03L32.129,29.03Z" fill="#ADA15C"/>
<path d="M19.157,6.444L16,0.969L12.843,6.444L19.157,6.444Z" fill="#ADA15C"/>
</svg>
