<svg width="142" height="10" viewBox="0 0 142 10" fill="none" xmlns="http://www.w3.org/2000/svg" xmlns:xlink="http://www.w3.org/1999/xlink">
<path d="M6.275,3.626C6.31,3.626 6.334,3.602 6.334,3.555L6.334,3.33C6.334,1.686 6.334,1.379 6.31,1.036C6.287,0.669 6.204,0.492 5.849,0.421C5.766,0.397 5.577,0.385 5.423,0.385C5.305,0.385 5.234,0.362 5.234,0.291C5.234,0.22 5.305,0.196 5.459,0.196C6.038,0.196 6.724,0.232 7.02,0.232C7.28,0.232 7.954,0.196 8.38,0.196C8.533,0.196 8.604,0.22 8.604,0.291C8.604,0.362 8.545,0.385 8.415,0.385C8.332,0.385 8.226,0.397 8.108,0.421C7.812,0.48 7.729,0.657 7.706,1.036C7.682,1.379 7.682,1.686 7.682,3.33L7.682,5.234C7.682,6.227 7.682,7.078 7.741,7.551C7.776,7.859 7.836,8.095 8.167,8.131C8.32,8.155 8.557,8.178 8.722,8.178C8.841,8.178 8.9,8.214 8.9,8.261C8.9,8.332 8.817,8.367 8.687,8.367C7.989,8.367 7.303,8.332 6.996,8.332C6.748,8.332 6.062,8.367 5.648,8.367C5.494,8.367 5.423,8.332 5.423,8.261C5.423,8.202 5.471,8.178 5.601,8.178C5.766,8.178 5.896,8.155 5.991,8.131C6.204,8.084 6.263,7.847 6.298,7.54C6.357,7.09 6.357,6.227 6.357,5.234L6.357,4.288C6.357,4.24 6.322,4.229 6.298,4.229L2.136,4.229C2.1,4.229 2.077,4.24 2.077,4.288L2.077,5.234C2.077,6.227 2.077,7.078 2.136,7.551C2.171,7.859 2.231,8.095 2.562,8.131C2.715,8.155 2.952,8.178 3.117,8.178C3.236,8.178 3.295,8.214 3.295,8.261C3.295,8.332 3.212,8.367 3.082,8.367C2.384,8.367 1.698,8.332 1.391,8.332C1.143,8.332 0.457,8.367 0.031,8.367C-0.111,8.367 -0.182,8.332 -0.182,8.261C-0.182,8.202 -0.134,8.178 -0.004,8.178C0.161,8.178 0.291,8.155 0.386,8.131C0.599,8.084 0.658,7.847 0.693,7.54C0.752,7.09 0.752,6.227 0.752,5.234L0.752,3.33C0.752,1.686 0.752,1.379 0.729,1.036C0.705,0.669 0.622,0.492 0.268,0.421C0.185,0.397 -0.004,0.385 -0.158,0.385C-0.276,0.385 -0.347,0.362 -0.347,0.291C-0.347,0.22 -0.276,0.196 -0.123,0.196C0.457,0.196 1.143,0.232 1.438,0.232C1.698,0.232 2.384,0.196 2.798,0.196C2.952,0.196 3.023,0.22 3.023,0.291C3.023,0.362 2.964,0.385 2.834,0.385C2.751,0.385 2.644,0.397 2.526,0.421C2.231,0.48 2.148,0.657 2.124,1.036C2.1,1.379 2.1,1.686 2.1,3.33L2.1,3.555C2.1,3.614 2.136,3.626 2.16,3.626L6.275,3.626Z" fill="#6F683B"/>
<path d="M10.047,4.276C10.047,2.431 11.265,0.042 14.517,0.042C17.213,0.042 18.88,1.615 18.88,4.087C18.88,6.558 17.154,8.521 14.399,8.521C11.312,8.509 10.047,6.192 10.047,4.276ZM17.367,4.477C17.367,2.053 15.971,0.551 14.198,0.551C12.956,0.551 11.537,1.237 11.537,3.933C11.537,6.18 12.779,7.965 14.86,7.965C15.617,7.977 17.367,7.611 17.367,4.477Z" fill="#6F683B"/>
<path d="M22.605,0.788L20.997,0.835C20.37,0.859 20.11,0.906 19.945,1.142C19.838,1.308 19.779,1.438 19.755,1.521C19.732,1.603 19.696,1.651 19.637,1.651C19.566,1.651 19.542,1.592 19.542,1.473C19.542,1.296 19.743,0.315 19.767,0.232C19.803,0.09 19.826,0.031 19.897,0.031C19.98,0.031 20.086,0.137 20.358,0.161C20.666,0.196 21.08,0.22 21.434,0.22L25.715,0.22C26.058,0.22 26.295,0.184 26.46,0.161C26.626,0.125 26.708,0.102 26.756,0.102C26.827,0.102 26.839,0.161 26.839,0.326C26.839,0.551 26.803,1.296 26.803,1.58C26.791,1.686 26.768,1.757 26.708,1.757C26.626,1.757 26.602,1.698 26.59,1.544L26.578,1.426C26.555,1.142 26.271,0.847 25.301,0.823L23.941,0.788L23.941,5.222C23.941,6.215 23.941,7.067 24.001,7.54C24.036,7.847 24.095,8.084 24.426,8.119C24.58,8.143 24.816,8.166 24.982,8.166C25.1,8.166 25.159,8.202 25.159,8.249C25.159,8.32 25.077,8.356 24.958,8.356C24.249,8.356 23.563,8.32 23.256,8.32C23.007,8.32 22.321,8.356 21.896,8.356C21.754,8.356 21.683,8.32 21.683,8.249C21.683,8.19 21.73,8.166 21.86,8.166C22.026,8.166 22.156,8.143 22.25,8.119C22.463,8.072 22.534,7.835 22.558,7.528C22.617,7.079 22.617,6.215 22.617,5.222L22.605,0.788Z" fill="#6F683B"/>
<path d="M28.955,3.318C28.955,1.674 28.955,1.367 28.932,1.024C28.908,0.657 28.825,0.48 28.47,0.409C28.388,0.385 28.198,0.374 28.045,0.374C27.926,0.374 27.855,0.35 27.855,0.279C27.855,0.208 27.926,0.184 28.092,0.184C28.388,0.184 28.695,0.196 28.967,0.196C29.251,0.208 29.499,0.22 29.653,0.22C29.996,0.22 32.148,0.22 32.361,0.208C32.562,0.184 32.739,0.161 32.822,0.149C32.881,0.137 32.94,0.102 32.999,0.102C33.059,0.102 33.059,0.149 33.059,0.196C33.059,0.267 32.999,0.397 32.976,0.894C32.964,1 32.94,1.473 32.917,1.603C32.905,1.662 32.881,1.722 32.81,1.722C32.727,1.722 32.716,1.662 32.716,1.568C32.716,1.497 32.704,1.308 32.656,1.178C32.585,0.988 32.467,0.847 31.935,0.787C31.746,0.764 30.611,0.74 30.398,0.74C30.339,0.74 30.327,0.776 30.327,0.847L30.327,3.578C30.327,3.649 30.339,3.696 30.398,3.696C30.634,3.696 31.876,3.696 32.124,3.673C32.384,3.649 32.55,3.614 32.645,3.507C32.716,3.424 32.763,3.365 32.822,3.365C32.869,3.365 32.893,3.389 32.893,3.448C32.893,3.507 32.846,3.685 32.81,4.24C32.798,4.453 32.763,4.891 32.763,4.962C32.763,5.044 32.763,5.163 32.668,5.163C32.597,5.163 32.574,5.115 32.574,5.068C32.562,4.962 32.562,4.82 32.526,4.678C32.467,4.465 32.325,4.299 31.923,4.252C31.722,4.229 30.646,4.217 30.386,4.217C30.327,4.217 30.327,4.264 30.327,4.323L30.327,5.175C30.327,5.541 30.315,6.534 30.327,6.854C30.351,7.599 30.516,7.764 31.628,7.764C31.911,7.764 32.361,7.764 32.645,7.634C32.928,7.504 33.058,7.279 33.129,6.83C33.153,6.712 33.177,6.664 33.248,6.664C33.33,6.664 33.33,6.747 33.33,6.854C33.33,7.102 33.248,7.835 33.189,8.06C33.118,8.344 33.011,8.344 32.609,8.344C31.793,8.344 31.202,8.32 30.741,8.308C30.28,8.285 29.937,8.273 29.617,8.273C29.499,8.273 29.263,8.273 29.002,8.285C28.754,8.285 28.47,8.308 28.258,8.308C28.116,8.308 28.045,8.273 28.045,8.202C28.045,8.143 28.092,8.119 28.222,8.119C28.388,8.119 28.518,8.095 28.612,8.072C28.825,8.024 28.884,7.788 28.92,7.48C28.979,7.031 28.979,6.168 28.979,5.175L28.955,3.318Z" fill="#6F683B"/>
<path d="M37.245,5.222C37.245,6.605 37.245,7.35 37.469,7.551C37.658,7.717 37.93,7.788 38.782,7.788C39.361,7.788 39.775,7.776 40.047,7.48C40.177,7.338 40.307,7.043 40.331,6.83C40.343,6.735 40.366,6.664 40.449,6.664C40.52,6.664 40.532,6.723 40.532,6.853C40.532,6.972 40.461,7.788 40.366,8.095C40.307,8.332 40.248,8.391 39.681,8.391C38.9,8.391 38.344,8.367 37.859,8.355C37.375,8.332 36.984,8.32 36.535,8.32C36.417,8.32 36.18,8.32 35.92,8.332C35.672,8.332 35.388,8.355 35.175,8.355C35.033,8.355 34.962,8.32 34.962,8.249C34.962,8.19 35.01,8.166 35.14,8.166C35.305,8.166 35.435,8.142 35.53,8.119C35.743,8.071 35.802,7.835 35.837,7.527C35.897,7.078 35.897,6.215 35.897,5.222L35.897,3.318C35.897,1.674 35.897,1.367 35.873,1.024C35.849,0.657 35.766,0.48 35.412,0.409C35.329,0.385 35.199,0.373 35.057,0.373C34.939,0.373 34.868,0.35 34.868,0.279C34.868,0.208 34.939,0.184 35.104,0.184C35.613,0.184 36.299,0.22 36.582,0.22C36.843,0.22 37.635,0.184 38.049,0.184C38.202,0.184 38.273,0.208 38.273,0.279C38.273,0.35 38.214,0.373 38.084,0.373C37.966,0.373 37.789,0.385 37.658,0.409C37.363,0.468 37.28,0.645 37.256,1.024C37.233,1.367 37.233,1.674 37.233,3.318L37.245,5.222Z" fill="#6F683B"/>
<path d="M41.951,8.226C41.774,8.155 41.75,8.095 41.75,7.859C41.75,7.268 41.797,6.617 41.809,6.44C41.821,6.274 41.856,6.156 41.939,6.156C42.034,6.156 42.046,6.251 42.046,6.345C42.046,6.487 42.093,6.712 42.14,6.901C42.377,7.705 43.015,7.989 43.689,7.989C44.659,7.989 45.144,7.327 45.144,6.759C45.144,6.227 44.978,5.73 44.079,5.033L43.583,4.643C42.388,3.708 41.986,2.952 41.986,2.077C41.986,0.882 42.98,0.031 44.482,0.031C45.179,0.031 45.64,0.137 45.924,0.22C46.019,0.244 46.078,0.279 46.078,0.35C46.078,0.492 46.031,0.799 46.031,1.651C46.031,1.887 45.995,1.97 45.912,1.97C45.841,1.97 45.806,1.911 45.806,1.781C45.806,1.686 45.747,1.343 45.522,1.071C45.357,0.87 45.049,0.539 44.34,0.539C43.536,0.539 43.051,1 43.051,1.651C43.051,2.147 43.299,2.526 44.198,3.212L44.505,3.436C45.818,4.418 46.279,5.163 46.279,6.192C46.279,6.818 46.042,7.563 45.262,8.072C44.718,8.415 44.115,8.509 43.547,8.509C42.897,8.509 42.412,8.438 41.951,8.226Z" fill="#6F683B"/>
<path d="M55.644,3.318C55.644,1.674 55.644,1.367 55.621,1.024C55.597,0.657 55.514,0.48 55.16,0.409C55.077,0.385 54.888,0.373 54.734,0.373C54.616,0.373 54.545,0.35 54.545,0.279C54.545,0.208 54.616,0.184 54.781,0.184C55.361,0.184 56.035,0.22 56.259,0.22C56.626,0.22 57.454,0.184 57.785,0.184C58.471,0.184 59.192,0.243 59.771,0.645C60.079,0.846 60.504,1.402 60.504,2.123C60.504,2.928 60.173,3.661 59.074,4.548C60.031,5.754 60.776,6.723 61.415,7.386C62.018,8.012 62.467,8.083 62.621,8.119C62.739,8.142 62.834,8.154 62.929,8.154C63.023,8.154 63.059,8.19 63.059,8.237C63.059,8.32 62.988,8.343 62.858,8.343L61.829,8.343C61.226,8.343 60.954,8.284 60.67,8.142C60.209,7.894 59.795,7.386 59.192,6.558C58.754,5.967 58.258,5.233 58.116,5.068C58.057,5.009 57.998,4.997 57.927,4.997L56.992,4.973C56.933,4.973 56.91,4.997 56.91,5.056L56.91,5.21C56.91,6.215 56.91,7.066 56.969,7.527C57.004,7.835 57.063,8.083 57.394,8.119C57.56,8.142 57.797,8.166 57.927,8.166C58.009,8.166 58.057,8.201 58.057,8.249C58.057,8.32 57.986,8.355 57.844,8.355C57.217,8.355 56.413,8.32 56.259,8.32C56.058,8.32 55.372,8.355 54.935,8.355C54.793,8.355 54.722,8.32 54.722,8.249C54.722,8.19 54.769,8.166 54.899,8.166C55.065,8.166 55.195,8.142 55.29,8.119C55.502,8.071 55.562,7.835 55.597,7.527C55.656,7.078 55.656,6.215 55.656,5.222L55.644,3.318ZM56.921,4.181C56.921,4.299 56.945,4.347 57.016,4.37C57.241,4.441 57.572,4.477 57.844,4.477C58.281,4.477 58.423,4.429 58.612,4.287C58.944,4.051 59.251,3.554 59.251,2.667C59.251,1.13 58.234,0.693 57.596,0.693C57.324,0.693 57.134,0.704 57.016,0.74C56.945,0.764 56.921,0.799 56.921,0.894L56.921,4.181Z" fill="#6F683B"/>
<path d="M64.419,3.318C64.419,1.674 64.419,1.367 64.395,1.024C64.371,0.657 64.289,0.48 63.934,0.409C63.851,0.385 63.662,0.374 63.508,0.374C63.39,0.374 63.319,0.35 63.319,0.279C63.319,0.208 63.39,0.184 63.555,0.184C63.851,0.184 64.158,0.196 64.43,0.196C64.714,0.208 64.963,0.22 65.116,0.22C65.459,0.22 67.611,0.22 67.824,0.208C68.025,0.184 68.203,0.161 68.285,0.149C68.345,0.137 68.404,0.102 68.463,0.102C68.522,0.102 68.522,0.149 68.522,0.196C68.522,0.267 68.463,0.397 68.439,0.894C68.427,1 68.404,1.473 68.38,1.603C68.368,1.662 68.345,1.722 68.274,1.722C68.203,1.722 68.179,1.662 68.179,1.568C68.179,1.497 68.167,1.308 68.12,1.178C68.049,0.988 67.931,0.847 67.398,0.787C67.209,0.764 66.074,0.74 65.861,0.74C65.802,0.74 65.79,0.776 65.79,0.847L65.79,3.578C65.79,3.649 65.802,3.696 65.861,3.696C66.098,3.696 67.339,3.696 67.588,3.673C67.848,3.649 68.013,3.614 68.108,3.507C68.179,3.424 68.226,3.365 68.285,3.365C68.333,3.365 68.356,3.389 68.356,3.448C68.356,3.507 68.309,3.685 68.274,4.24C68.262,4.453 68.226,4.891 68.226,4.962C68.226,5.044 68.226,5.163 68.132,5.163C68.061,5.163 68.037,5.115 68.037,5.068C68.025,4.962 68.025,4.82 67.99,4.678C67.931,4.465 67.789,4.299 67.387,4.252C67.186,4.229 66.11,4.217 65.849,4.217C65.79,4.217 65.79,4.264 65.79,4.323L65.79,5.175C65.79,5.541 65.778,6.534 65.79,6.854C65.814,7.599 65.979,7.764 67.091,7.764C67.375,7.764 67.824,7.764 68.108,7.634C68.392,7.504 68.522,7.279 68.593,6.83C68.616,6.712 68.64,6.664 68.711,6.664C68.794,6.664 68.794,6.747 68.794,6.854C68.794,7.102 68.711,7.835 68.652,8.06C68.581,8.344 68.475,8.344 68.073,8.344C67.257,8.344 66.665,8.32 66.204,8.308C65.743,8.285 65.4,8.273 65.081,8.273C64.963,8.273 64.726,8.273 64.466,8.285C64.218,8.285 63.934,8.308 63.721,8.308C63.579,8.308 63.508,8.273 63.508,8.202C63.508,8.143 63.555,8.119 63.685,8.119C63.851,8.119 63.981,8.095 64.076,8.072C64.289,8.024 64.348,7.788 64.383,7.48C64.442,7.031 64.442,6.168 64.442,5.175L64.419,3.318Z" fill="#6F683B"/>
<path d="M70.509,8.226C70.331,8.155 70.307,8.095 70.307,7.859C70.307,7.268 70.355,6.617 70.367,6.44C70.378,6.274 70.414,6.156 70.497,6.156C70.591,6.156 70.603,6.251 70.603,6.345C70.603,6.487 70.65,6.712 70.698,6.901C70.934,7.705 71.573,7.989 72.247,7.989C73.216,7.989 73.701,7.327 73.701,6.759C73.701,6.227 73.536,5.73 72.637,5.033L72.14,4.643C70.946,3.708 70.544,2.952 70.544,2.077C70.544,0.882 71.537,0.031 73.039,0.031C73.737,0.031 74.198,0.137 74.482,0.22C74.576,0.244 74.635,0.279 74.635,0.35C74.635,0.492 74.588,0.799 74.588,1.651C74.588,1.887 74.553,1.97 74.47,1.97C74.399,1.97 74.363,1.911 74.363,1.781C74.363,1.686 74.304,1.343 74.08,1.071C73.914,0.87 73.607,0.539 72.897,0.539C72.093,0.539 71.608,1 71.608,1.651C71.608,2.147 71.857,2.526 72.755,3.212L73.063,3.436C74.375,4.418 74.836,5.163 74.836,6.192C74.836,6.818 74.6,7.563 73.82,8.072C73.276,8.415 72.673,8.509 72.105,8.509C71.466,8.509 70.97,8.438 70.509,8.226Z" fill="#6F683B"/>
<path d="M76.326,4.276C76.326,2.431 77.544,0.042 80.796,0.042C83.492,0.042 85.16,1.615 85.16,4.087C85.16,6.558 83.433,8.521 80.678,8.521C77.58,8.509 76.326,6.192 76.326,4.276ZM83.646,4.477C83.646,2.053 82.251,0.551 80.477,0.551C79.235,0.551 77.816,1.237 77.816,3.933C77.816,6.18 79.058,7.965 81.139,7.965C81.896,7.977 83.646,7.611 83.646,4.477Z" fill="#6F683B"/>
<path d="M87.276,3.318C87.276,1.674 87.276,1.367 87.253,1.024C87.229,0.657 87.146,0.48 86.792,0.409C86.709,0.385 86.52,0.373 86.366,0.373C86.248,0.373 86.177,0.35 86.177,0.279C86.177,0.208 86.248,0.184 86.413,0.184C86.993,0.184 87.667,0.22 87.891,0.22C88.258,0.22 89.086,0.184 89.417,0.184C90.103,0.184 90.824,0.243 91.403,0.645C91.711,0.846 92.137,1.402 92.137,2.123C92.137,2.928 91.805,3.661 90.706,4.548C91.664,5.754 92.409,6.723 93.047,7.386C93.65,8.012 94.1,8.083 94.253,8.119C94.372,8.142 94.466,8.154 94.561,8.154C94.643,8.154 94.691,8.19 94.691,8.237C94.691,8.32 94.62,8.343 94.49,8.343L93.461,8.343C92.858,8.343 92.586,8.284 92.302,8.142C91.841,7.894 91.427,7.386 90.824,6.558C90.386,5.967 89.89,5.233 89.748,5.068C89.689,5.009 89.63,4.997 89.559,4.997L88.625,4.973C88.565,4.973 88.542,4.997 88.542,5.056L88.542,5.21C88.542,6.215 88.542,7.066 88.601,7.527C88.636,7.835 88.695,8.083 89.027,8.119C89.192,8.142 89.429,8.166 89.559,8.166C89.641,8.166 89.689,8.201 89.689,8.249C89.689,8.32 89.618,8.355 89.476,8.355C88.849,8.355 88.045,8.32 87.891,8.32C87.69,8.32 87.004,8.355 86.567,8.355C86.425,8.355 86.354,8.32 86.354,8.249C86.354,8.19 86.401,8.166 86.531,8.166C86.697,8.166 86.827,8.142 86.922,8.119C87.135,8.071 87.194,7.835 87.229,7.527C87.288,7.078 87.288,6.215 87.288,5.222L87.276,3.318ZM88.554,4.181C88.554,4.299 88.577,4.347 88.648,4.37C88.873,4.441 89.204,4.477 89.476,4.477C89.913,4.477 90.055,4.429 90.245,4.287C90.576,4.051 90.883,3.554 90.883,2.667C90.883,1.13 89.866,0.693 89.228,0.693C88.956,0.693 88.766,0.704 88.648,0.74C88.577,0.764 88.554,0.799 88.554,0.894L88.554,4.181Z" fill="#6F683B"/>
<path d="M96.583,0.788L94.975,0.835C94.348,0.859 94.088,0.906 93.922,1.142C93.816,1.308 93.757,1.438 93.733,1.521C93.709,1.603 93.674,1.651 93.615,1.651C93.544,1.651 93.52,1.592 93.52,1.473C93.52,1.296 93.721,0.315 93.745,0.232C93.78,0.09 93.804,0.031 93.875,0.031C93.958,0.031 94.064,0.137 94.336,0.161C94.643,0.196 95.057,0.22 95.412,0.22L99.693,0.22C100.036,0.22 100.272,0.184 100.438,0.161C100.603,0.125 100.686,0.102 100.733,0.102C100.804,0.102 100.816,0.161 100.816,0.326C100.816,0.551 100.781,1.296 100.781,1.58C100.769,1.686 100.745,1.757 100.686,1.757C100.603,1.757 100.58,1.698 100.568,1.544L100.556,1.426C100.532,1.142 100.249,0.847 99.279,0.823L97.919,0.788L97.919,5.222C97.919,6.215 97.919,7.067 97.978,7.54C98.014,7.847 98.073,8.084 98.404,8.119C98.558,8.143 98.794,8.166 98.96,8.166C99.078,8.166 99.137,8.202 99.137,8.249C99.137,8.32 99.054,8.356 98.936,8.356C98.226,8.356 97.541,8.32 97.233,8.32C96.985,8.32 96.299,8.356 95.873,8.356C95.731,8.356 95.66,8.32 95.66,8.249C95.66,8.19 95.708,8.166 95.838,8.166C96.003,8.166 96.133,8.143 96.228,8.119C96.441,8.072 96.512,7.835 96.535,7.528C96.595,7.079 96.595,6.215 96.595,5.222L96.583,0.788Z" fill="#6F683B"/>
<path d="M102.33,8.226C102.152,8.155 102.129,8.095 102.129,7.859C102.129,7.268 102.176,6.617 102.188,6.44C102.2,6.274 102.235,6.156 102.318,6.156C102.413,6.156 102.424,6.251 102.424,6.345C102.424,6.487 102.472,6.712 102.519,6.901C102.755,7.705 103.394,7.989 104.068,7.989C105.038,7.989 105.523,7.327 105.523,6.759C105.523,6.227 105.357,5.73 104.458,5.033L103.962,4.643C102.767,3.708 102.365,2.952 102.365,2.077C102.365,0.882 103.359,0.031 104.86,0.031C105.558,0.031 106.019,0.137 106.303,0.22C106.398,0.244 106.457,0.279 106.457,0.35C106.457,0.492 106.409,0.799 106.409,1.651C106.409,1.887 106.374,1.97 106.291,1.97C106.22,1.97 106.185,1.911 106.185,1.781C106.185,1.686 106.126,1.343 105.901,1.071C105.735,0.87 105.428,0.539 104.718,0.539C103.914,0.539 103.43,1 103.43,1.651C103.43,2.147 103.678,2.526 104.577,3.212L104.884,3.436C106.197,4.418 106.658,5.163 106.658,6.192C106.658,6.818 106.421,7.563 105.641,8.072C105.097,8.415 104.494,8.509 103.926,8.509C103.276,8.509 102.791,8.438 102.33,8.226Z" fill="#6F683B"/>
<path d="M115.432,8.226C115.255,8.155 115.231,8.095 115.231,7.859C115.231,7.268 115.278,6.617 115.29,6.44C115.302,6.274 115.337,6.156 115.42,6.156C115.515,6.156 115.527,6.251 115.527,6.345C115.527,6.487 115.574,6.712 115.621,6.901C115.858,7.705 116.496,7.989 117.17,7.989C118.14,7.989 118.625,7.327 118.625,6.759C118.625,6.227 118.459,5.73 117.56,5.033L117.064,4.643C115.869,3.708 115.467,2.952 115.467,2.077C115.467,0.882 116.461,0.031 117.963,0.031C118.66,0.031 119.121,0.137 119.405,0.22C119.5,0.244 119.559,0.279 119.559,0.35C119.559,0.492 119.512,0.799 119.512,1.651C119.512,1.887 119.476,1.97 119.393,1.97C119.322,1.97 119.287,1.911 119.287,1.781C119.287,1.686 119.228,1.343 119.003,1.071C118.838,0.87 118.53,0.539 117.821,0.539C117.017,0.539 116.532,1 116.532,1.651C116.532,2.147 116.78,2.526 117.679,3.212L117.986,3.436C119.299,4.418 119.76,5.163 119.76,6.192C119.76,6.818 119.523,7.563 118.743,8.072C118.199,8.415 117.596,8.509 117.028,8.509C116.378,8.509 115.893,8.438 115.432,8.226Z" fill="#6F683B"/>
<path d="M122.421,3.318C122.421,1.674 122.421,1.367 122.397,1.024C122.373,0.657 122.291,0.48 121.936,0.409C121.853,0.385 121.664,0.373 121.51,0.373C121.392,0.373 121.321,0.35 121.321,0.279C121.321,0.208 121.392,0.184 121.557,0.184C122.137,0.184 122.811,0.22 123.118,0.22C123.556,0.22 124.194,0.184 124.691,0.184C126.039,0.184 126.536,0.633 126.701,0.799C126.938,1.024 127.245,1.508 127.245,2.088C127.245,3.625 126.122,4.701 124.585,4.701C124.525,4.701 124.407,4.701 124.36,4.689C124.301,4.678 124.23,4.666 124.23,4.595C124.23,4.512 124.301,4.477 124.537,4.477C125.14,4.477 125.992,3.791 125.992,2.691C125.992,2.336 125.956,1.615 125.353,1.071C124.963,0.716 124.525,0.645 124.277,0.645C124.112,0.645 123.946,0.657 123.851,0.693C123.792,0.716 123.769,0.775 123.769,0.894L123.769,5.222C123.769,6.215 123.769,7.066 123.828,7.539C123.863,7.847 123.922,8.083 124.253,8.119C124.407,8.142 124.644,8.166 124.809,8.166C124.928,8.166 124.987,8.201 124.987,8.249C124.987,8.32 124.904,8.355 124.786,8.355C124.076,8.355 123.39,8.32 123.106,8.32C122.858,8.32 122.172,8.355 121.747,8.355C121.605,8.355 121.534,8.32 121.534,8.249C121.534,8.19 121.581,8.166 121.711,8.166C121.877,8.166 122.007,8.142 122.101,8.119C122.314,8.071 122.373,7.835 122.409,7.527C122.468,7.078 122.468,6.215 122.468,5.222L122.421,3.318Z" fill="#6F683B"/>
<path d="M129.409,5.541C129.35,5.541 129.338,5.565 129.315,5.624L128.735,7.173C128.629,7.445 128.57,7.705 128.57,7.835C128.57,8.024 128.664,8.166 129.007,8.166L129.173,8.166C129.303,8.166 129.338,8.19 129.338,8.249C129.338,8.332 129.279,8.355 129.149,8.355C128.806,8.355 128.333,8.32 128.002,8.32C127.884,8.32 127.293,8.355 126.725,8.355C126.583,8.355 126.524,8.332 126.524,8.249C126.524,8.19 126.571,8.166 126.654,8.166C126.749,8.166 126.902,8.154 126.985,8.143C127.482,8.083 127.683,7.705 127.907,7.173L130.627,0.385C130.757,0.078 130.816,-0.052 130.935,-0.052C131.029,-0.052 131.1,0.042 131.207,0.291C131.467,0.882 133.193,5.293 133.891,6.936C134.305,7.906 134.612,8.06 134.837,8.119C135.002,8.154 135.168,8.166 135.286,8.166C135.369,8.166 135.428,8.178 135.428,8.249C135.428,8.332 135.334,8.355 134.931,8.355C134.541,8.355 133.749,8.355 132.886,8.332C132.697,8.32 132.555,8.32 132.555,8.249C132.555,8.19 132.602,8.166 132.708,8.154C132.779,8.131 132.862,8.036 132.803,7.906L131.94,5.612C131.916,5.553 131.881,5.541 131.833,5.541L129.409,5.541ZM131.609,4.997C131.668,4.997 131.668,4.962 131.668,4.938L130.698,2.265C130.686,2.218 130.674,2.171 130.639,2.171C130.604,2.171 130.58,2.23 130.58,2.265L129.587,4.926C129.575,4.973 129.587,4.997 129.634,4.997L131.609,4.997Z" fill="#6F683B"/>
<path d="M136.043,8.226C135.866,8.155 135.842,8.095 135.842,7.859C135.842,7.268 135.889,6.617 135.901,6.44C135.913,6.274 135.948,6.156 136.031,6.156C136.126,6.156 136.138,6.251 136.138,6.345C136.138,6.487 136.185,6.712 136.232,6.901C136.469,7.705 137.107,7.989 137.781,7.989C138.751,7.989 139.236,7.327 139.236,6.759C139.236,6.227 139.07,5.73 138.172,5.033L137.675,4.643C136.481,3.708 136.079,2.952 136.079,2.077C136.079,0.882 137.072,0.031 138.574,0.031C139.271,0.031 139.732,0.137 140.016,0.22C140.111,0.244 140.17,0.279 140.17,0.35C140.17,0.492 140.123,0.799 140.123,1.651C140.123,1.887 140.087,1.97 140.004,1.97C139.934,1.97 139.898,1.911 139.898,1.781C139.898,1.686 139.839,1.343 139.614,1.071C139.449,0.87 139.141,0.539 138.432,0.539C137.628,0.539 137.143,1 137.143,1.651C137.143,2.147 137.391,2.526 138.29,3.212L138.597,3.436C139.91,4.418 140.371,5.163 140.371,6.192C140.371,6.818 140.135,7.563 139.354,8.072C138.81,8.415 138.207,8.509 137.639,8.509C137.001,8.509 136.516,8.438 136.043,8.226Z" fill="#6F683B"/>
<path d="M51.577,3.33L49.826,3.33L49.826,5.08L51.577,5.08L51.577,3.33Z" fill="#6F683B"/>
<path d="M111.955,3.33L110.205,3.33L110.205,5.08L111.955,5.08L111.955,3.33Z" fill="#6F683B"/>
</svg>
