<svg width="146" height="76" viewBox="0 0 146 76" fill="none" xmlns="http://www.w3.org/2000/svg" xmlns:xlink="http://www.w3.org/1999/xlink">
<path d="M23.553,70.634L-0.565,70.634L-0.565,71.305L23.553,71.305L23.553,70.634Z" fill="#AC854D"/>
<path d="M144.494,70.634L120.306,70.634L120.306,71.305L144.494,71.305L144.494,70.634Z" fill="#AC854D"/>
<path d="M66.88,6.755C66.88,5.237 67.233,3.754 67.833,2.376L63.455,2.376C62.395,2.376 61.548,3.224 61.548,4.248L61.548,21.127C61.548,22.186 62.395,23.034 63.455,23.034L80.298,23.034C81.358,23.034 82.205,22.186 82.205,21.127L82.205,16.501C80.828,17.101 79.309,17.454 77.756,17.454C71.788,17.49 66.88,12.687 66.88,6.755Z" fill="#AC854D"/>
<path d="M80.969,6.791C79.733,7.285 78.285,6.72 77.791,5.484C77.261,4.248 77.862,2.871 79.098,2.341C80.333,1.847 81.781,2.412 82.276,3.648C82.805,4.884 82.205,6.296 80.969,6.791ZM84.288,1.706C83.971,1.847 83.794,2.2 83.865,2.624L83.194,2.871C82.841,2.235 82.346,1.776 81.746,1.459L82.028,0.823C82.452,0.858 82.841,0.717 82.982,0.399C83.158,-0.025 82.841,-0.519 82.276,-0.766C81.711,-0.978 81.146,-0.837 80.969,-0.448C80.828,-0.13 81.004,0.258 81.322,0.505L81.04,1.141C80.369,0.964 79.663,0.929 78.992,1.141L78.709,0.505C79.027,0.258 79.204,-0.13 79.062,-0.448C78.886,-0.872 78.285,-1.013 77.756,-0.766C77.191,-0.554 76.873,-0.025 77.05,0.399C77.191,0.717 77.579,0.858 78.003,0.823L78.285,1.459C77.65,1.812 77.155,2.306 76.838,2.871L76.202,2.589C76.237,2.165 76.096,1.812 75.778,1.67C75.355,1.494 74.825,1.812 74.613,2.341C74.401,2.871 74.542,3.471 74.966,3.648C75.284,3.789 75.672,3.613 75.92,3.295L76.59,3.577C76.414,4.213 76.379,4.919 76.59,5.59L75.92,5.872C75.672,5.555 75.284,5.378 74.966,5.519C74.542,5.696 74.401,6.261 74.613,6.826C74.86,7.356 75.355,7.673 75.778,7.497C76.096,7.356 76.273,7.002 76.202,6.579L76.873,6.296C77.226,6.932 77.72,7.391 78.321,7.709L78.038,8.344C77.615,8.309 77.226,8.45 77.085,8.768C76.908,9.192 77.226,9.686 77.791,9.933C78.356,10.145 78.921,10.004 79.098,9.615C79.239,9.298 79.062,8.909 78.744,8.662L79.027,8.026C79.698,8.203 80.404,8.238 81.075,8.026L81.358,8.662C81.04,8.909 80.863,9.298 81.004,9.615C81.181,10.039 81.781,10.18 82.311,9.933C82.876,9.721 83.158,9.192 83.017,8.768C82.876,8.45 82.487,8.309 82.064,8.344L81.781,7.709C82.417,7.356 82.911,6.861 83.229,6.296L83.865,6.579C83.829,7.002 83.971,7.391 84.288,7.497C84.712,7.673 85.242,7.356 85.454,6.826C85.665,6.296 85.524,5.696 85.101,5.519C84.783,5.378 84.394,5.555 84.112,5.872L83.476,5.59C83.653,4.954 83.688,4.248 83.476,3.577L84.147,3.33C84.394,3.648 84.783,3.824 85.101,3.683C85.524,3.507 85.665,2.942 85.454,2.377C85.206,1.812 84.712,1.529 84.288,1.706Z" fill="#AC854D"/>
<path d="M85.101,11.699L85.03,11.699C83.617,12.688 81.887,13.253 79.98,13.253C77.544,13.253 75.355,12.264 73.73,10.71C72.141,9.156 71.153,6.967 71.153,4.566C71.153,2.73 71.753,1.035 72.742,-0.378L72.742,-0.448L72.671,-0.448C70.376,1.141 68.857,3.754 68.857,6.755C68.857,11.593 72.847,15.512 77.756,15.512C80.793,15.512 83.441,14.029 85.101,11.699Z" fill="#A6A8AA"/>
<path d="M37.536,72.894C37.501,73.423 37.395,73.847 37.289,74.2C37.218,74.412 36.9,74.588 36.371,74.765C35.771,74.942 35.1,75.048 34.323,75.048C33.052,75.048 31.992,74.659 31.145,73.918C30.297,73.141 29.874,72.187 29.874,70.987C29.874,69.751 30.333,68.762 31.215,67.95C32.063,67.173 33.087,66.785 34.287,66.785C35.135,66.785 35.876,66.891 36.441,67.102C36.971,67.279 37.218,67.456 37.254,67.597C37.289,67.915 37.324,68.409 37.324,69.08C37.324,69.186 37.218,69.256 37.006,69.292C36.865,69.292 36.759,69.256 36.724,69.151C36.512,68.444 36.23,67.985 35.876,67.703C35.523,67.42 34.994,67.314 34.287,67.314C33.405,67.314 32.663,67.597 32.098,68.197C31.498,68.833 31.18,69.716 31.18,70.845C31.18,71.975 31.498,72.858 32.133,73.529C32.769,74.2 33.581,74.553 34.535,74.553C35.17,74.553 35.665,74.412 36.053,74.129C36.406,73.882 36.689,73.423 36.9,72.858C36.971,72.682 37.112,72.611 37.324,72.682C37.465,72.682 37.536,72.752 37.536,72.894Z" fill="#A6A8AA"/>
<path d="M46.611,71.092C46.611,69.927 46.293,69.009 45.658,68.303C45.057,67.667 44.21,67.314 43.221,67.314C42.374,67.314 41.703,67.632 41.173,68.232C40.644,68.868 40.361,69.645 40.361,70.633C40.361,71.834 40.679,72.752 41.314,73.423C41.915,74.094 42.762,74.412 43.786,74.412C44.634,74.412 45.305,74.094 45.834,73.494C46.364,72.929 46.611,72.117 46.611,71.092ZM47.847,70.881C47.847,72.046 47.423,73.035 46.541,73.847C45.693,74.659 44.669,75.047 43.504,75.047C42.268,75.047 41.209,74.659 40.396,73.917C39.549,73.141 39.125,72.152 39.125,70.916C39.125,69.715 39.549,68.727 40.396,67.914C41.244,67.138 42.268,66.714 43.504,66.714C44.74,66.714 45.764,67.102 46.611,67.879C47.423,68.691 47.847,69.68 47.847,70.881Z" fill="#A6A8AA"/>
<path d="M55.404,73.353C55.262,73.882 55.192,74.341 55.192,74.8C55.192,74.871 55.051,74.906 54.803,74.906C54.168,74.871 53.391,74.871 52.437,74.871C51.449,74.871 50.531,74.906 49.754,74.942C49.648,74.942 49.577,74.942 49.542,74.906C49.507,74.871 49.507,74.836 49.507,74.73C49.507,74.624 49.577,74.553 49.754,74.553C50.142,74.518 50.354,74.306 50.354,73.918L50.354,68.338C50.354,68.056 50.319,67.844 50.248,67.703C50.142,67.526 49.966,67.42 49.719,67.314C49.542,67.244 49.507,67.173 49.507,67.032C49.507,66.926 49.542,66.891 49.577,66.891C49.613,66.891 49.719,66.891 49.895,66.891C50.495,66.961 51.202,66.961 52.014,66.891C52.155,66.891 52.226,66.891 52.261,66.891C52.332,66.891 52.402,66.961 52.402,67.067C52.402,67.173 52.402,67.244 52.332,67.279C52.296,67.279 52.226,67.314 52.084,67.35C51.802,67.42 51.625,67.491 51.555,67.562C51.484,67.632 51.449,67.809 51.449,68.091L51.449,73.494C51.449,73.847 51.555,74.059 51.802,74.2C52.014,74.306 52.437,74.377 53.038,74.377C53.603,74.377 54.027,74.306 54.309,74.165C54.591,74.024 54.803,73.741 54.98,73.317C55.051,73.141 55.156,73.105 55.262,73.141C55.404,73.176 55.439,73.247 55.404,73.353Z" fill="#A6A8AA"/>
<path d="M62.607,73.353C62.466,73.882 62.395,74.341 62.395,74.8C62.395,74.871 62.254,74.906 62.007,74.906C61.371,74.871 60.594,74.871 59.641,74.871C58.652,74.871 57.734,74.906 56.957,74.942C56.851,74.942 56.781,74.942 56.745,74.906C56.71,74.871 56.71,74.836 56.71,74.73C56.71,74.624 56.781,74.553 56.957,74.553C57.346,74.518 57.558,74.306 57.558,73.918L57.558,68.338C57.558,68.056 57.522,67.844 57.452,67.703C57.346,67.526 57.169,67.42 56.922,67.314C56.781,67.244 56.71,67.173 56.71,67.032C56.71,66.926 56.745,66.891 56.781,66.891C56.816,66.891 56.922,66.891 57.099,66.891C57.699,66.961 58.405,66.961 59.217,66.891C59.359,66.891 59.429,66.891 59.464,66.891C59.535,66.891 59.606,66.961 59.606,67.067C59.606,67.173 59.606,67.244 59.535,67.279C59.5,67.279 59.429,67.314 59.288,67.35C59.005,67.42 58.829,67.491 58.758,67.562C58.688,67.632 58.652,67.809 58.652,68.091L58.652,73.494C58.652,73.847 58.758,74.059 59.005,74.2C59.217,74.306 59.641,74.377 60.241,74.377C60.806,74.377 61.23,74.306 61.513,74.165C61.795,74.024 62.007,73.741 62.183,73.317C62.254,73.141 62.36,73.105 62.466,73.141C62.607,73.176 62.642,73.247 62.607,73.353Z" fill="#A6A8AA"/>
<path d="M69.952,73.352C69.846,73.847 69.775,74.306 69.74,74.8C69.74,74.871 69.599,74.906 69.387,74.906C68.751,74.871 67.939,74.871 66.986,74.871C65.926,74.871 64.973,74.906 64.231,74.941C64.055,74.941 63.984,74.871 63.984,74.73C63.984,74.624 64.055,74.553 64.231,74.553C64.479,74.518 64.62,74.482 64.691,74.412C64.761,74.341 64.832,74.165 64.832,73.917L64.832,68.338C64.832,67.95 64.796,67.738 64.726,67.632C64.655,67.526 64.479,67.42 64.161,67.35C63.984,67.314 63.949,67.208 63.984,67.067C64.02,66.996 64.055,66.961 64.09,66.926C64.126,66.926 64.231,66.926 64.408,66.961C64.655,66.996 65.326,67.032 66.421,67.032C67.515,67.032 68.434,66.996 69.21,66.961C69.458,66.961 69.599,66.961 69.599,67.032C69.599,67.067 69.599,67.067 69.599,67.102C69.528,67.491 69.493,67.95 69.493,68.479C69.493,68.621 69.422,68.656 69.316,68.656C69.21,68.656 69.14,68.585 69.069,68.479C68.963,68.197 68.857,68.02 68.787,67.914C68.645,67.773 68.469,67.667 68.222,67.632C68.045,67.597 67.339,67.561 66.174,67.561C66.032,67.561 65.962,67.597 65.926,67.632C65.891,67.667 65.891,67.703 65.891,67.809L65.891,70.351C65.891,70.457 65.962,70.492 66.068,70.492C66.456,70.492 66.986,70.457 67.657,70.422C67.763,70.422 67.869,70.351 67.904,70.245C67.939,70.174 68.01,69.998 68.045,69.751C68.08,69.574 68.186,69.504 68.328,69.574C68.469,69.609 68.539,69.645 68.504,69.751C68.398,70.316 68.363,71.022 68.398,71.905C68.398,72.011 68.328,72.046 68.186,72.081C68.08,72.081 68.01,72.046 67.974,71.869C67.939,71.552 67.869,71.34 67.833,71.269C67.763,71.163 67.657,71.128 67.48,71.093C67.162,71.057 66.668,71.022 65.997,71.022C65.926,71.022 65.891,71.057 65.891,71.093L65.891,73.741C65.891,74.129 66.103,74.341 66.527,74.447C66.633,74.482 67.021,74.482 67.657,74.482C68.645,74.482 69.281,74.129 69.528,73.423C69.599,73.247 69.705,73.211 69.811,73.247C69.952,73.176 69.987,73.247 69.952,73.352Z" fill="#A6A8AA"/>
<path d="M79.098,72.894C79.062,73.423 78.956,73.847 78.85,74.2C78.78,74.412 78.462,74.588 77.932,74.765C77.332,74.942 76.661,75.048 75.884,75.048C74.613,75.048 73.554,74.659 72.706,73.918C71.859,73.141 71.435,72.187 71.435,70.987C71.435,69.751 71.894,68.762 72.777,67.95C73.624,67.173 74.648,66.785 75.849,66.785C76.696,66.785 77.438,66.891 78.003,67.102C78.533,67.279 78.78,67.456 78.815,67.597C78.85,67.915 78.886,68.409 78.886,69.08C78.886,69.186 78.78,69.256 78.568,69.292C78.427,69.292 78.321,69.256 78.285,69.151C78.074,68.444 77.791,67.985 77.438,67.703C77.085,67.42 76.555,67.314 75.849,67.314C74.966,67.314 74.225,67.597 73.66,68.197C73.059,68.833 72.742,69.716 72.742,70.845C72.742,71.975 73.059,72.858 73.695,73.529C74.331,74.2 75.143,74.553 76.096,74.553C76.732,74.553 77.226,74.412 77.614,74.129C77.968,73.882 78.25,73.423 78.462,72.858C78.533,72.682 78.674,72.611 78.886,72.682C79.062,72.682 79.133,72.752 79.098,72.894Z" fill="#A6A8AA"/>
<path d="M88.384,68.833C88.384,68.903 88.384,68.939 88.349,68.974C88.349,69.009 88.279,69.009 88.208,69.045C88.067,69.08 87.961,69.009 87.925,68.868C87.749,68.338 87.537,67.985 87.325,67.809C87.007,67.561 86.407,67.456 85.595,67.456C85.277,67.456 85.065,67.491 85.03,67.561C85.03,67.597 85.03,67.632 85.03,67.667L85.03,73.706C85.03,73.953 85.101,74.129 85.206,74.235C85.312,74.341 85.56,74.447 85.913,74.518C86.054,74.553 86.16,74.588 86.16,74.588C86.23,74.624 86.23,74.694 86.23,74.8C86.23,74.906 86.16,74.942 86.089,74.942C86.089,74.942 85.983,74.942 85.842,74.906C84.783,74.8 83.9,74.8 83.194,74.906C83.017,74.942 82.911,74.942 82.876,74.906C82.841,74.871 82.805,74.836 82.805,74.765C82.77,74.624 82.841,74.553 83.017,74.518C83.37,74.412 83.582,74.306 83.723,74.2C83.865,74.059 83.935,73.847 83.935,73.529L83.935,67.667C83.935,67.561 83.865,67.491 83.723,67.456C83.723,67.456 83.582,67.456 83.37,67.456C82.593,67.456 82.028,67.597 81.675,67.844C81.393,68.056 81.146,68.409 80.934,68.939C80.863,69.115 80.757,69.15 80.651,69.115C80.51,69.08 80.475,69.009 80.51,68.903C80.651,68.48 80.722,67.844 80.722,67.067C80.722,66.961 80.828,66.926 81.075,66.961C81.958,67.032 82.911,67.032 83.971,67.032C85.983,67.032 87.255,66.996 87.855,66.926C88.067,66.891 88.208,66.926 88.208,67.032C88.349,67.526 88.384,68.126 88.384,68.833Z" fill="#A6A8AA"/>
<path d="M92.904,67.032C92.904,67.138 92.798,67.208 92.587,67.279C92.092,67.42 91.845,67.597 91.845,67.844L91.845,73.741C91.845,74.129 92.057,74.341 92.516,74.447C92.728,74.483 92.834,74.553 92.834,74.694C92.834,74.8 92.798,74.871 92.763,74.871C92.728,74.906 92.622,74.906 92.445,74.906C91.386,74.871 90.574,74.871 89.973,74.906C89.832,74.906 89.726,74.906 89.726,74.836C89.726,74.8 89.726,74.765 89.726,74.694C89.726,74.624 89.832,74.553 90.009,74.518C90.362,74.447 90.538,74.377 90.609,74.341C90.75,74.271 90.786,74.094 90.786,73.847L90.786,67.879C90.786,67.561 90.574,67.35 90.115,67.279C89.938,67.244 89.832,67.173 89.832,67.102C89.832,66.996 89.832,66.926 89.868,66.891C89.903,66.855 89.973,66.855 90.079,66.855C90.856,66.926 91.668,66.926 92.516,66.82C92.657,66.785 92.763,66.785 92.798,66.82C92.869,66.855 92.904,66.926 92.904,67.032Z" fill="#A6A8AA"/>
<path d="M102.015,71.092C102.015,69.927 101.697,69.009 101.061,68.303C100.461,67.667 99.613,67.314 98.625,67.314C97.777,67.314 97.106,67.632 96.577,68.232C96.047,68.868 95.765,69.645 95.765,70.633C95.765,71.834 96.082,72.752 96.718,73.423C97.318,74.094 98.166,74.412 99.19,74.412C100.037,74.412 100.708,74.094 101.238,73.494C101.732,72.929 102.015,72.117 102.015,71.092ZM103.215,70.881C103.215,72.046 102.792,73.035 101.909,73.847C101.061,74.659 100.037,75.047 98.872,75.047C97.636,75.047 96.577,74.659 95.765,73.917C94.917,73.141 94.493,72.152 94.493,70.916C94.493,69.715 94.917,68.727 95.765,67.914C96.612,67.138 97.636,66.714 98.872,66.714C100.108,66.714 101.132,67.102 101.979,67.879C102.792,68.691 103.215,69.68 103.215,70.881Z" fill="#A6A8AA"/>
<path d="M113.95,67.032C113.95,67.138 113.844,67.208 113.632,67.279C113.138,67.42 112.891,67.703 112.891,68.127L112.891,72.47C112.891,73.388 112.891,74.129 112.926,74.694C112.926,74.906 112.891,75.012 112.785,75.048C112.608,75.083 112.467,75.012 112.326,74.765C112.114,74.377 111.337,73.423 109.96,71.94C108.794,70.704 107.7,69.504 106.605,68.444C106.57,68.409 106.535,68.409 106.499,68.409C106.464,68.444 106.429,68.48 106.429,68.55L106.429,73.494C106.429,74.024 106.711,74.341 107.241,74.447C107.453,74.483 107.559,74.553 107.559,74.694C107.559,74.836 107.417,74.906 107.17,74.906C106.217,74.871 105.475,74.871 104.946,74.906C104.769,74.906 104.698,74.836 104.698,74.694C104.698,74.624 104.769,74.553 104.946,74.518C105.263,74.447 105.475,74.341 105.581,74.235C105.687,74.094 105.722,73.882 105.722,73.6L105.722,68.232C105.722,67.985 105.687,67.809 105.581,67.703C105.475,67.597 105.299,67.456 105.051,67.35C104.84,67.244 104.769,67.173 104.769,67.067C104.769,66.961 104.875,66.926 105.051,66.926C105.581,66.997 106.04,67.032 106.429,66.961C106.64,66.926 106.817,67.032 106.958,67.173L112.043,72.576C112.114,72.646 112.149,72.682 112.184,72.682C112.22,72.682 112.22,72.611 112.22,72.505L112.22,68.127C112.22,67.597 111.937,67.314 111.408,67.208C111.231,67.173 111.125,67.138 111.125,67.032C111.125,66.855 111.196,66.785 111.372,66.82C112.043,66.891 112.785,66.891 113.597,66.785C113.738,66.785 113.844,66.785 113.879,66.785C113.915,66.855 113.95,66.926 113.95,67.032Z" fill="#A6A8AA"/>
<path d="M32.946,47.929C34.287,46.375 37.183,43.621 36.512,40.902C32.416,40.76 32.204,45.174 32.946,47.929ZM3.319,47.434C4.732,45.951 7.345,42.914 6.78,40.266C2.896,40.372 1.978,44.68 3.319,47.434ZM31.003,21.727C26.378,26.706 22.811,34.263 21.293,41.149C23.729,38.147 26.201,35.181 28.32,31.932C30.439,28.684 32.663,24.941 33.193,20.28C32.098,19.785 31.533,21.127 31.003,21.727ZM35.841,15.866C37.218,18.761 35.523,21.833 34.393,24.129C30.898,31.12 25.424,37.476 20.551,43.056C20.128,46.587 18.539,53.508 21.999,54.214C24.577,54.744 27.755,50.895 29.026,49.588C29.414,45.81 30.721,42.597 33.157,40.301C34.252,39.277 36.547,38.112 38.242,38.394C39.831,43.232 35.841,46.445 33.157,48.599C36.23,53.896 45.87,50.33 47.741,46.41C47.847,44.68 47.635,43.267 47.494,41.784C48.589,41.502 49.189,40.831 50.425,41.29C52.19,43.691 49.895,49.27 52.367,51.248C54.839,50.789 55.086,48.14 55.051,45.174C56.11,44.962 56.71,44.256 58.193,44.433C59.182,46.94 58.617,51.672 61.336,52.201C65.926,53.084 69.493,43.691 66.668,39.807C65.467,38.183 59.782,36.664 61.336,33.98C62.431,32.109 63.702,32.992 66.209,34.722C67.515,35.64 68.751,36.382 69.599,36.911C72.283,38.571 75.814,41.29 81.252,40.548C84.147,40.16 87.113,37.229 89.762,40.548C83.37,40.796 79.168,45.951 77.862,51.46C82.064,50.188 84.818,47.328 87.572,44.433C88.42,43.55 89.232,42.349 90.503,41.996C91.916,43.02 90.397,44.786 90.009,46.622C89.373,49.518 88.985,53.155 90.75,54.638C94.599,54.143 97.848,49.835 99.508,46.622C100.673,44.362 101.909,41.325 102.191,37.865C106.817,37.582 104.239,42.773 102.933,45.88C101.909,48.317 100.496,50.259 100.496,52.201C101.909,52.166 102.438,50.577 103.18,49.518C105.299,46.516 107.382,41.89 111.196,40.301C114.515,43.056 109.889,50.188 112.396,53.649C115.115,54.108 117.022,52.272 118.717,50.965C120.235,46.834 125.214,38.359 131.817,39.065C132.806,39.171 133.901,39.277 134.254,40.513C127.827,40.76 123.731,45.951 122.354,51.424C126.556,50.153 129.31,47.293 132.065,44.397C132.877,43.515 133.689,42.314 134.996,41.961C136.09,42.95 135.137,44.962 134.748,46.799C134.148,49.623 133.195,52.943 135.243,54.567C138.88,54.214 140.787,51.248 142.517,48.741C142.976,48.07 143.364,46.551 144.459,46.799C144.918,47.681 143.612,49.059 142.517,50.436C141.104,52.201 138.88,55.309 136.196,55.768C130.44,56.827 129.734,51.389 131.57,47.01C128.428,47.328 124.614,53.967 120.412,53.331C119.635,53.225 118.894,52.978 118.717,51.883C116.845,53.543 111.372,57.922 109.006,54.32C107.276,51.672 109.465,47.046 109.006,44.115C107.276,44.362 106.287,46.975 105.122,48.741C103.215,51.566 101.414,55.45 97.354,54.32C96.789,53.543 97.248,52.06 97.601,51.424C95.976,53.119 90.574,58.345 87.149,54.814C85.418,53.049 86.372,49.518 87.149,47.046C83.37,47.858 80.333,54.496 74.507,52.872C73.801,47.611 77.968,45.174 80.086,41.961C76.944,41.113 72.777,41.361 69.881,40.266C69.034,41.29 69.599,42.561 69.387,43.903C68.787,47.717 65.467,53.155 61.866,54.355C57.946,55.626 56.322,52.519 55.792,49.023C54.521,50.859 53.603,53.684 51.166,53.402C49.118,53.155 47.953,51.177 48.024,47.823C45.728,50.047 40.043,55.626 32.734,53.402C31.568,53.049 30.297,51.989 29.591,50.718C27.119,53.19 22.317,58.381 18.185,55.344C16.385,54.002 16.455,51.177 16.49,47.575C14.16,49.835 8.051,55.803 2.401,53.155C1.342,52.66 -0.282,51.001 -0.53,49.27C-0.918,46.34 0.318,43.373 1.801,41.467C3.425,39.348 5.297,37.688 8.722,37.829C10.417,42.844 6.074,45.775 3.637,48.282C6.886,53.931 14.654,48.811 16.985,45.598C18.892,37.582 23.871,28.79 28.638,22.292C30.403,19.927 32.592,16.254 35.841,15.866Z" clip-rule="evenodd" fill-rule="evenodd" fill="#AC854D"/>
</svg>
