<svg width="148" height="42" viewBox="0 0 148 42" fill="none" xmlns="http://www.w3.org/2000/svg" xmlns:xlink="http://www.w3.org/1999/xlink">
<path d="M64.293,-0.847C62.691,-0.847 62.287,0.323 61.814,1.674L49.78,34.863L38.234,1.911C37.691,0.379 37.259,-0.833 35.588,-0.833C34.195,-0.833 33.262,0.281 33.262,1.34C33.262,1.897 33.387,2.217 33.777,3.304L46.451,37.997C47.217,40.017 47.719,41.354 49.724,41.354C51.73,41.354 52.231,40.017 52.997,37.997L65.936,3.22C66.396,2.078 66.465,1.8 66.465,1.215C66.465,0.24 65.574,-0.847 64.293,-0.847Z" fill="#300F2B"/>
<path d="M21.41,2.454C20.491,0.337 19.975,-0.847 18.039,-0.847C15.992,-0.847 15.449,0.532 14.627,2.607L0.658,37.008C0.17,38.164 0.017,38.512 0.017,39.237C0.017,40.239 0.95,41.354 2.287,41.354C3.903,41.354 4.293,40.351 4.892,38.833L17.984,5.351L25.546,23.861C24.181,23.638 22.357,23.429 20.449,23.429C16.103,23.429 14.028,24.223 13.903,24.265C12.817,24.655 12.246,25.852 12.622,26.939C12.914,27.774 13.708,28.331 14.599,28.331C14.836,28.331 15.073,28.29 15.296,28.206C15.324,28.192 16.842,27.607 20.449,27.607C23.708,27.607 26.772,28.345 27.454,28.526L31.577,38.68L31.605,38.763C32.273,40.323 32.705,41.354 34.265,41.354C35.825,41.354 36.66,40.058 36.66,39.125C36.66,38.485 36.535,38.067 36.006,36.827L21.41,2.454Z" fill="#300F2B"/>
<path d="M132.969,-0.721C131.924,-0.721 130.685,-0.248 130.685,2.009L130.95,33.401L109.543,1.702C108.512,0.17 107.941,-0.665 106.563,-0.665C103.888,-0.665 103.888,1.814 103.888,3.457L103.888,37.914C103.888,39.334 103.888,41.479 106.228,41.479C106.939,41.479 107.496,41.284 107.886,40.894C108.54,40.226 108.526,39.167 108.512,38.304L108.234,7.747L129.32,38.889C130.462,40.574 131.033,41.423 132.468,41.423C133.443,41.423 134.055,41.019 134.376,40.699C135.309,39.905 135.309,39.125 135.309,37.078L135.309,2.83C135.309,1.424 135.309,-0.721 132.969,-0.721Z" fill="#300F2B"/>
<path d="M145.643,-0.721C143.303,-0.721 143.303,1.591 143.303,2.844L143.303,37.914C143.303,39.251 143.303,41.479 145.685,41.479C147.969,41.479 147.969,39.251 147.969,37.914L147.969,2.83C147.983,1.507 147.983,-0.721 145.643,-0.721Z" fill="#300F2B"/>
<path d="M84.446,2.454C83.526,0.337 83.011,-0.847 81.075,-0.847C79.014,-0.847 78.471,0.532 77.649,2.607L63.694,37.008C63.192,38.178 63.039,38.526 63.039,39.251C63.039,40.253 63.972,41.368 65.309,41.368C66.925,41.368 67.315,40.365 67.914,38.847L81.006,5.365L88.596,23.861C87.217,23.638 85.407,23.429 83.498,23.429C79.153,23.429 77.092,24.223 76.953,24.265C75.866,24.655 75.295,25.852 75.671,26.939C75.964,27.774 76.758,28.331 77.649,28.331C77.886,28.331 78.123,28.29 78.345,28.206C78.373,28.192 79.891,27.607 83.498,27.607C86.758,27.607 89.822,28.345 90.504,28.526L94.627,38.68L94.654,38.763C95.323,40.323 95.755,41.354 97.315,41.354C98.874,41.354 99.71,40.058 99.71,39.125C99.71,38.485 99.585,38.067 99.055,36.827L84.446,2.454Z" fill="#300F2B"/>
</svg>
