<svg width="148" height="36" viewBox="0 0 148 36" fill="none" xmlns="http://www.w3.org/2000/svg" xmlns:xlink="http://www.w3.org/1999/xlink">
<path d="M38.382,32.468L38.382,28.568L39.06,28.568L39.06,30.124L40.916,30.124L40.916,28.568L41.587,28.568L41.587,32.468L40.916,32.468L40.916,30.723L39.06,30.723L39.06,32.468L38.382,32.468Z" fill="#16090B"/>
<path d="M43.944,30.519C43.943,30.287 43.977,30.055 44.045,29.833C44.113,29.619 44.214,29.418 44.345,29.236C44.522,28.991 44.755,28.79 45.024,28.65C45.271,28.524 45.543,28.454 45.821,28.444C46.099,28.435 46.375,28.487 46.63,28.597C46.867,28.7 47.079,28.85 47.256,29.037C47.44,29.231 47.583,29.459 47.678,29.708C47.872,30.231 47.872,30.806 47.678,31.328C47.584,31.575 47.442,31.8 47.26,31.991C47.078,32.182 46.859,32.334 46.617,32.439C46.384,32.541 46.133,32.594 45.879,32.594C45.624,32.594 45.373,32.541 45.14,32.439C44.904,32.336 44.69,32.186 44.512,31.999C44.327,31.806 44.181,31.578 44.085,31.328C43.988,31.07 43.94,30.795 43.944,30.519ZM44.65,30.519C44.638,30.889 44.765,31.249 45.005,31.53C45.114,31.656 45.249,31.757 45.401,31.827C45.553,31.896 45.718,31.932 45.885,31.932C46.052,31.932 46.217,31.896 46.369,31.827C46.521,31.757 46.656,31.656 46.766,31.53C46.997,31.243 47.122,30.886 47.122,30.518C47.122,30.15 46.997,29.793 46.766,29.507C46.656,29.38 46.52,29.279 46.368,29.209C46.216,29.14 46.05,29.104 45.883,29.104C45.715,29.104 45.55,29.14 45.397,29.209C45.245,29.279 45.109,29.38 45,29.507C44.761,29.789 44.636,30.15 44.65,30.519Z" fill="#16090B"/>
<path d="M51.713,29.164L51.713,32.468L51.013,32.468L51.013,29.164L49.688,29.164L49.688,28.568L53.004,28.568L53.004,29.164L51.713,29.164Z" fill="#16090B"/>
<path d="M55.181,32.468L55.181,28.568L57.451,28.568L57.451,29.17L55.86,29.17L55.86,30.13L57.236,30.13L57.236,30.723L55.86,30.723L55.86,31.864L57.488,31.864L57.488,32.468L55.181,32.468Z" fill="#16090B"/>
<path d="M59.919,32.468L59.919,28.568L60.601,28.568L60.601,31.858L62.277,31.858L62.277,32.468L59.919,32.468Z" fill="#16090B"/>
<path d="M64.22,31.604C64.402,31.724 64.597,31.825 64.801,31.903C64.961,31.965 65.13,31.998 65.302,32.001C65.481,32.01 65.657,31.956 65.8,31.848C65.861,31.802 65.91,31.743 65.943,31.675C65.976,31.606 65.993,31.531 65.991,31.455C65.992,31.323 65.946,31.194 65.861,31.092C65.734,30.952 65.585,30.835 65.419,30.745L65.124,30.567C64.88,30.433 64.665,30.253 64.491,30.037C64.366,29.868 64.301,29.663 64.305,29.453C64.301,29.313 64.328,29.174 64.384,29.045C64.44,28.917 64.525,28.803 64.631,28.711C64.871,28.513 65.176,28.411 65.487,28.425C65.654,28.424 65.821,28.443 65.983,28.48C66.151,28.522 66.314,28.582 66.469,28.661L66.447,29.281C66.284,29.189 66.113,29.111 65.936,29.048C65.807,29.004 65.673,28.98 65.538,28.976C65.387,28.968 65.238,29.01 65.114,29.095C65.064,29.134 65.024,29.183 64.997,29.24C64.971,29.297 64.958,29.359 64.96,29.422C64.96,29.53 65.001,29.635 65.074,29.716C65.197,29.84 65.338,29.945 65.493,30.026L65.774,30.19C66.043,30.334 66.28,30.531 66.471,30.768C66.609,30.96 66.682,31.19 66.678,31.426C66.684,31.585 66.654,31.742 66.591,31.888C66.527,32.033 66.432,32.163 66.312,32.267C66.038,32.496 65.688,32.614 65.331,32.598C65.148,32.599 64.966,32.579 64.788,32.54C64.612,32.503 64.441,32.445 64.278,32.367L64.22,31.604Z" fill="#16090B"/>
<path d="M70.523,30.419C70.521,30.314 70.54,30.21 70.58,30.113C70.621,30.017 70.68,29.929 70.756,29.857C70.83,29.782 70.918,29.723 71.015,29.684C71.112,29.644 71.216,29.624 71.321,29.626C71.451,29.627 71.58,29.66 71.695,29.722C71.81,29.784 71.907,29.874 71.979,29.983C72.052,30.092 72.096,30.217 72.108,30.347C72.12,30.477 72.1,30.608 72.05,30.728C72,30.849 71.92,30.955 71.819,31.038C71.718,31.12 71.598,31.177 71.47,31.202C71.342,31.227 71.209,31.22 71.084,31.182C70.959,31.144 70.846,31.076 70.753,30.984C70.679,30.91 70.62,30.822 70.58,30.725C70.541,30.628 70.521,30.524 70.523,30.419Z" fill="#16090B"/>
<path d="M76.183,32.468L76.183,28.568L77.088,28.568C77.338,28.561 77.587,28.583 77.833,28.632C78.002,28.67 78.162,28.741 78.305,28.839C78.444,28.935 78.559,29.062 78.641,29.21C78.722,29.35 78.764,29.509 78.763,29.671C78.768,29.911 78.69,30.146 78.543,30.337C78.377,30.535 78.155,30.681 77.907,30.756L79.169,32.468L78.374,32.468L77.188,30.851L76.86,30.851L76.86,32.468L76.183,32.468ZM76.857,30.347L77.17,30.347C77.406,30.363 77.641,30.307 77.846,30.188C77.921,30.137 77.982,30.068 78.023,29.987C78.064,29.905 78.083,29.815 78.079,29.724C78.085,29.634 78.067,29.544 78.026,29.464C77.985,29.384 77.922,29.316 77.846,29.268C77.617,29.156 77.363,29.106 77.109,29.122L76.857,29.122L76.857,30.347Z" fill="#16090B"/>
<path d="M81.327,32.468L81.327,28.568L83.597,28.568L83.597,29.17L81.993,29.17L81.993,30.13L83.361,30.13L83.361,30.723L81.982,30.723L81.982,31.864L83.626,31.864L83.626,32.468L81.327,32.468Z" fill="#16090B"/>
<path d="M85.843,31.604C86.025,31.725 86.221,31.825 86.426,31.903C86.585,31.965 86.754,31.998 86.924,32.001C87.103,32.01 87.28,31.956 87.423,31.848C87.484,31.802 87.533,31.743 87.566,31.675C87.599,31.606 87.616,31.531 87.614,31.455C87.615,31.323 87.57,31.195 87.487,31.092C87.359,30.951 87.208,30.834 87.041,30.745L86.747,30.567C86.503,30.433 86.288,30.253 86.113,30.037C85.989,29.868 85.924,29.663 85.927,29.453C85.923,29.313 85.95,29.173 86.007,29.045C86.064,28.916 86.149,28.802 86.256,28.711C86.495,28.513 86.8,28.411 87.11,28.425C87.277,28.424 87.443,28.443 87.606,28.48C87.774,28.522 87.937,28.582 88.091,28.661L88.07,29.281C87.906,29.189 87.735,29.111 87.558,29.048C87.43,29.004 87.296,28.98 87.16,28.976C87.011,28.968 86.862,29.01 86.739,29.095C86.688,29.133 86.648,29.182 86.621,29.239C86.593,29.296 86.58,29.359 86.582,29.422C86.584,29.53 86.624,29.635 86.696,29.716C86.819,29.84 86.961,29.945 87.115,30.026L87.399,30.19C87.667,30.335 87.903,30.532 88.094,30.768C88.234,30.959 88.307,31.19 88.303,31.426C88.309,31.585 88.278,31.743 88.215,31.888C88.151,32.034 88.055,32.163 87.935,32.267C87.66,32.492 87.311,32.606 86.956,32.587C86.773,32.588 86.591,32.569 86.413,32.529C86.238,32.492 86.068,32.434 85.906,32.357L85.843,31.604Z" fill="#16090B"/>
<path d="M90.432,30.519C90.431,30.287 90.465,30.055 90.533,29.833C90.6,29.619 90.703,29.417 90.835,29.236C91.012,28.989 91.244,28.788 91.514,28.65C91.761,28.524 92.033,28.454 92.31,28.444C92.588,28.435 92.864,28.487 93.118,28.597C93.355,28.699 93.568,28.849 93.744,29.037C93.927,29.231 94.071,29.459 94.166,29.708C94.36,30.231 94.36,30.806 94.166,31.328C94.072,31.577 93.929,31.805 93.744,31.996C93.565,32.184 93.35,32.334 93.113,32.439C92.881,32.542 92.63,32.596 92.376,32.598C92.121,32.6 91.869,32.547 91.636,32.444C91.399,32.341 91.186,32.191 91.008,32.004C90.823,31.81 90.678,31.583 90.581,31.333C90.482,31.073 90.432,30.798 90.432,30.519ZM91.138,30.519C91.126,30.889 91.254,31.25 91.496,31.53C91.604,31.656 91.739,31.758 91.891,31.828C92.043,31.897 92.208,31.933 92.375,31.933C92.542,31.933 92.706,31.897 92.858,31.828C93.01,31.758 93.145,31.656 93.254,31.53C93.484,31.243 93.61,30.886 93.61,30.518C93.61,30.15 93.484,29.793 93.254,29.507C93.144,29.38 93.008,29.279 92.856,29.209C92.703,29.14 92.538,29.104 92.371,29.104C92.203,29.104 92.038,29.14 91.885,29.209C91.733,29.279 91.597,29.38 91.488,29.507C91.25,29.789 91.125,30.15 91.138,30.519Z" fill="#16090B"/>
<path d="M96.663,32.468L96.663,28.568L97.567,28.568C97.817,28.561 98.067,28.583 98.313,28.632C98.481,28.67 98.642,28.741 98.784,28.839C98.924,28.935 99.039,29.062 99.121,29.21C99.202,29.35 99.244,29.509 99.243,29.671C99.247,29.911 99.17,30.146 99.023,30.337C98.857,30.535 98.635,30.681 98.387,30.756L99.649,32.468L98.853,32.468L97.668,30.851L97.339,30.851L97.339,32.468L96.663,32.468ZM97.337,30.347L97.65,30.347C97.886,30.363 98.121,30.307 98.326,30.188C98.401,30.137 98.462,30.068 98.503,29.987C98.544,29.905 98.563,29.815 98.559,29.724C98.565,29.634 98.547,29.544 98.506,29.464C98.464,29.384 98.402,29.316 98.326,29.268C98.097,29.156 97.843,29.106 97.589,29.122L97.324,29.122L97.337,30.347Z" fill="#16090B"/>
<path d="M103.345,29.164L103.345,32.468L102.656,32.468L102.656,29.164L101.33,29.164L101.33,28.568L104.647,28.568L104.647,29.164L103.345,29.164Z" fill="#16090B"/>
<path d="M106.593,31.604C106.775,31.724 106.97,31.825 107.174,31.903C107.334,31.965 107.503,31.998 107.675,32.001C107.853,32.01 108.029,31.956 108.171,31.848C108.231,31.802 108.28,31.743 108.314,31.675C108.347,31.606 108.363,31.531 108.362,31.455C108.362,31.323 108.317,31.195 108.234,31.092C108.107,30.951 107.956,30.834 107.789,30.745L107.497,30.567C107.253,30.434 107.037,30.254 106.863,30.037C106.739,29.868 106.673,29.663 106.675,29.453C106.671,29.313 106.699,29.173 106.756,29.045C106.813,28.917 106.897,28.802 107.004,28.711C107.244,28.513 107.549,28.411 107.86,28.425C108.027,28.424 108.194,28.443 108.356,28.48C108.524,28.522 108.687,28.583 108.841,28.661L108.82,29.281C108.656,29.189 108.484,29.111 108.306,29.048C108.179,29.003 108.045,28.979 107.911,28.976C107.76,28.968 107.611,29.01 107.487,29.095C107.436,29.133 107.396,29.183 107.369,29.239C107.343,29.296 107.33,29.359 107.333,29.422C107.333,29.53 107.373,29.634 107.444,29.716C107.569,29.839 107.711,29.944 107.866,30.026L108.147,30.19C108.415,30.335 108.652,30.532 108.844,30.768C108.982,30.96 109.055,31.19 109.051,31.426C109.057,31.585 109.027,31.742 108.963,31.888C108.9,32.033 108.805,32.163 108.685,32.267C108.41,32.491 108.061,32.605 107.707,32.587C107.523,32.588 107.34,32.569 107.16,32.529C106.985,32.492 106.815,32.434 106.654,32.357L106.593,31.604Z" fill="#16090B"/>
<path d="M112.895,30.419C112.893,30.314 112.913,30.21 112.953,30.113C112.993,30.017 113.053,29.929 113.129,29.857C113.202,29.782 113.29,29.723 113.388,29.684C113.485,29.644 113.589,29.624 113.693,29.626C113.904,29.626 114.107,29.71 114.256,29.859C114.405,30.008 114.489,30.211 114.489,30.422C114.489,30.632 114.405,30.835 114.256,30.984C114.107,31.133 113.904,31.217 113.693,31.217C113.589,31.219 113.485,31.199 113.388,31.159C113.291,31.119 113.204,31.059 113.131,30.984C113.056,30.91 112.996,30.823 112.955,30.725C112.915,30.628 112.894,30.524 112.895,30.419Z" fill="#16090B"/>
<path d="M118.336,31.604C118.518,31.725 118.713,31.826 118.917,31.903C119.076,31.965 119.245,31.998 119.415,32.001C119.594,32.01 119.771,31.956 119.914,31.848C119.975,31.802 120.024,31.743 120.057,31.675C120.09,31.606 120.106,31.531 120.105,31.455C120.105,31.323 120.06,31.195 119.977,31.092C119.85,30.951 119.699,30.834 119.532,30.745L119.238,30.567C118.994,30.434 118.78,30.253 118.607,30.037C118.482,29.868 118.416,29.663 118.418,29.453C118.414,29.313 118.441,29.173 118.498,29.045C118.555,28.916 118.64,28.802 118.747,28.711C118.986,28.513 119.291,28.411 119.601,28.425C119.768,28.424 119.934,28.443 120.097,28.48C120.266,28.522 120.429,28.582 120.585,28.661L120.561,29.281C120.397,29.189 120.226,29.111 120.049,29.048C119.922,29.004 119.789,28.979 119.654,28.976C119.503,28.968 119.354,29.01 119.23,29.095C119.18,29.133 119.139,29.183 119.113,29.24C119.086,29.296 119.073,29.359 119.076,29.422C119.076,29.53 119.116,29.634 119.187,29.716C119.311,29.839 119.452,29.944 119.606,30.026L119.89,30.19C120.158,30.335 120.395,30.532 120.587,30.768C120.726,30.96 120.798,31.19 120.794,31.426C120.8,31.585 120.769,31.743 120.705,31.888C120.642,32.034 120.546,32.163 120.426,32.267C120.152,32.491 119.804,32.606 119.45,32.587C119.266,32.588 119.083,32.569 118.904,32.529C118.729,32.492 118.559,32.434 118.397,32.357L118.336,31.604Z" fill="#16090B"/>
<path d="M123.843,28.568L123.843,30.843C123.821,31.147 123.907,31.449 124.085,31.697C124.172,31.795 124.282,31.873 124.404,31.923C124.526,31.973 124.658,31.994 124.79,31.986C124.921,31.995 125.053,31.973 125.175,31.922C125.297,31.871 125.404,31.792 125.49,31.691C125.665,31.439 125.748,31.134 125.726,30.827L125.726,28.568L126.341,28.568L126.341,30.838C126.369,31.306 126.218,31.767 125.919,32.129C125.774,32.286 125.596,32.409 125.399,32.489C125.201,32.57 124.987,32.606 124.774,32.595C124.553,32.609 124.332,32.576 124.125,32.497C123.918,32.419 123.73,32.298 123.573,32.142C123.271,31.782 123.12,31.319 123.151,30.851L123.151,28.568L123.843,28.568Z" fill="#16090B"/>
<rect  x="128.921" y="28.568" width="0.689" height="3.9" fill="#16090B"/>
<path d="M133.786,29.164L133.786,32.468L133.1,32.468L133.1,29.164L131.774,29.164L131.774,28.568L135.088,28.568L135.088,29.164L133.786,29.164Z" fill="#16090B"/>
<path d="M137.254,32.468L137.254,28.568L139.524,28.568L139.524,29.17L137.933,29.17L137.933,30.13L139.307,30.13L139.307,30.723L137.931,30.723L137.931,31.864L139.561,31.864L139.561,32.468L137.254,32.468Z" fill="#16090B"/>
<path d="M141.772,31.604C141.955,31.724 142.149,31.825 142.353,31.903C142.513,31.965 142.683,31.998 142.854,32.001C143.032,32.01 143.208,31.956 143.35,31.848C143.411,31.802 143.46,31.743 143.493,31.675C143.526,31.606 143.543,31.531 143.541,31.455C143.542,31.323 143.497,31.195 143.414,31.092C143.286,30.951 143.136,30.834 142.968,30.745L142.677,30.567C142.432,30.434 142.217,30.254 142.043,30.037C141.918,29.868 141.852,29.663 141.855,29.453C141.85,29.313 141.877,29.173 141.934,29.045C141.991,28.916 142.076,28.802 142.183,28.711C142.423,28.512 142.729,28.41 143.04,28.425C143.207,28.424 143.373,28.443 143.536,28.48C143.704,28.522 143.866,28.583 144.021,28.661L144,29.281C143.835,29.189 143.663,29.111 143.485,29.048C143.358,29.003 143.225,28.979 143.09,28.976C142.939,28.968 142.79,29.01 142.666,29.096C142.616,29.133 142.576,29.183 142.549,29.24C142.522,29.296 142.509,29.359 142.512,29.422C142.513,29.53 142.552,29.635 142.624,29.716C142.748,29.84 142.89,29.945 143.045,30.026L143.326,30.191C143.595,30.335 143.832,30.532 144.024,30.769C144.162,30.96 144.234,31.19 144.23,31.426C144.236,31.585 144.206,31.743 144.142,31.888C144.078,32.034 143.982,32.163 143.862,32.267C143.589,32.495 143.241,32.613 142.886,32.598C142.702,32.599 142.519,32.579 142.34,32.54C142.165,32.502 141.995,32.444 141.833,32.367L141.772,31.604Z" fill="#16090B"/>
<path d="M46.026,7.521C44.607,11.652 39.275,16.454 32.453,19.789C22.945,24.424 13.559,24.811 11.53,20.651C11.029,19.622 11.019,18.384 11.507,16.968C12.925,12.85 18.257,8.035 25.093,4.702C34.601,0.068 43.987,-0.32 46.015,3.838C46.516,4.867 46.527,6.108 46.039,7.521M52.061,3.742C48.754,-2.449 34.574,-1.372 20.421,6.147C10.21,11.575 2.391,19.108 0.479,25.336C-0.189,27.521 -0.099,29.432 0.744,31.018C4.037,37.212 18.225,36.133 32.371,28.621C42.582,23.191 50.401,15.661 52.312,9.432C52.981,7.248 52.89,5.336 52.047,3.75Z" fill="#A6A8AA"/>
<path d="M110.949,23.275L98.639,15.425L109.56,8.74L118.426,8.74L107.306,15.425L120.174,23.275L110.949,23.275Z" fill="#001489"/>
<path d="M28.95,18.045C28.95,22.287 32.27,23.276 38.14,23.276L48.921,23.276C54.789,23.276 58.114,22.279 58.114,18.045L58.114,13.733C58.114,9.491 54.789,8.502 48.921,8.502L38.14,8.502C32.27,8.502 28.95,9.499 28.95,13.733L28.95,18.045ZM35.47,14.728C35.47,12.927 36.115,11.832 39.548,11.832L47.503,11.832C50.934,11.832 51.581,12.927 51.581,14.728L51.581,17.053C51.581,19.15 50.934,19.948 47.855,19.948L39.185,19.948C36.104,19.948 35.46,19.153 35.46,17.053L35.47,14.728Z" fill="#001489"/>
<path d="M98.665,8.74L92.145,8.74L92.145,23.275L98.665,23.275L98.665,8.74Z" fill="#001489"/>
<path d="M139.163,23.276L121.913,23.276L121.913,19.948L138.919,19.948C139.474,19.948 141.348,20.094 141.348,18.75C141.348,17.406 139.471,17.554 138.917,17.554L130.056,17.554C122.976,17.554 121.258,16.446 121.258,13.028C121.258,9.61 122.976,8.502 130.056,8.502L147.211,8.502L147.211,11.832L130.122,11.832C129.568,11.832 127.688,11.681 127.688,13.028C127.688,14.375 129.565,14.226 130.119,14.226L139.163,14.226C146.243,14.226 147.964,15.332 147.964,18.75C147.964,22.168 146.243,23.276 139.163,23.276Z" fill="#001489"/>
<path d="M74.049,11.93L70.053,17.323L78.159,17.323L74.049,11.93ZM58.302,23.276L69.632,8.735L78.498,8.735L90.005,23.271L82.748,23.271L80.709,20.667L67.497,20.667L65.588,23.279L58.302,23.276Z" fill="#001489"/>
</svg>
