<svg width="12" height="22" viewBox="0 0 12 22" fill="none" xmlns="http://www.w3.org/2000/svg" xmlns:xlink="http://www.w3.org/1999/xlink">
<path d="M9.969,11.613C9.53,10.993 8.967,10.471 8.315,10.082C7.654,9.682 6.953,9.348 6.227,9.087C5.518,8.837 4.829,8.534 4.165,8.18C3.571,7.874 3.04,7.46 2.599,6.958C2.164,6.403 1.948,5.708 1.988,5.003C1.984,4.548 2.07,4.098 2.239,3.676C2.395,3.279 2.637,2.921 2.948,2.628C3.261,2.333 3.627,2.103 4.03,1.952C4.467,1.789 4.929,1.707 5.396,1.711C5.829,1.698 6.259,1.784 6.656,1.962C6.992,2.117 7.3,2.328 7.568,2.586C7.812,2.818 8.018,3.089 8.174,3.388C8.313,3.656 8.435,3.933 8.538,4.216L8.575,4.311L9.097,4.311L9.123,4.195C9.232,3.671 9.344,3.226 9.446,2.885C9.553,2.549 9.688,2.223 9.849,1.91L9.907,1.805L9.813,1.732C9.269,1.287 8.647,0.946 7.981,0.725C7.225,0.493 6.437,0.384 5.647,0.4C4.79,0.388 3.935,0.521 3.121,0.793C2.41,1.034 1.753,1.41 1.185,1.899C0.652,2.366 0.23,2.947 -0.053,3.598C-0.341,4.286 -0.485,5.027 -0.475,5.773C-0.522,6.714 -0.287,7.647 0.198,8.452C0.631,9.105 1.192,9.662 1.847,10.088C2.505,10.509 3.205,10.861 3.935,11.136C4.649,11.394 5.347,11.695 6.024,12.038C6.617,12.341 7.148,12.754 7.589,13.254C8.022,13.796 8.243,14.479 8.204,15.173C8.206,15.69 8.114,16.203 7.934,16.688C7.769,17.142 7.512,17.558 7.182,17.909C6.844,18.264 6.437,18.545 5.987,18.738C5.49,18.943 4.957,19.046 4.422,19.042C3.423,19.059 2.451,18.737 1.659,18.129C1.324,17.875 1.027,17.573 0.778,17.233C0.551,16.928 0.358,16.599 0.202,16.253L0.161,16.164L-0.392,16.164L-0.392,16.295C-0.444,16.819 -0.501,17.254 -0.564,17.595C-0.642,17.98 -0.756,18.357 -0.903,18.722L-0.94,18.821L-0.861,18.884C-0.307,19.314 0.303,19.666 0.95,19.933C1.853,20.274 2.815,20.433 3.779,20.399C4.764,20.416 5.743,20.26 6.675,19.938C7.489,19.655 8.23,19.199 8.853,18.601C9.442,18.031 9.903,17.341 10.205,16.578C10.517,15.795 10.678,14.958 10.674,14.114C10.704,13.227 10.457,12.353 9.969,11.613Z" fill="#5B6670"/>
</svg>
