<svg width="32" height="42" viewBox="0 0 32 42" fill="none" xmlns="http://www.w3.org/2000/svg" xmlns:xlink="http://www.w3.org/1999/xlink">
<path d="M30.938,30.911L30.66,33.509C30.381,37.221 26.994,40.283 23.283,40.283C19.571,40.283 16.834,37.221 17.112,33.509L17.762,27.014L18.69,17.271C18.782,15.972 17.808,14.905 16.555,14.905C15.21,14.905 14.05,15.926 11.823,19.127L9.967,21.772L9.503,27.014L8.39,39.309L0.503,39.309L1.616,27.014L4.075,-0.776L11.87,-0.776L10.385,16.065L11.22,14.859C12.844,12.493 15.303,9.291 19.478,9.291C23.608,9.291 26.762,12.678 26.391,16.9L25.463,27.014L24.86,33.509C24.814,34.391 25.463,35.133 26.438,35.133C27.319,35.133 28.154,34.391 28.247,33.509L28.479,30.911L30.938,30.911Z" fill="#5B4690"/>
</svg>
