<svg width="6" height="8" viewBox="0 0 6 8" fill="none" xmlns="http://www.w3.org/2000/svg" xmlns:xlink="http://www.w3.org/1999/xlink">
<path d="M5.1,5.596C5.1,7.017 3.874,7.769 2.342,7.769C0.922,7.769 -0.095,7.128 -0.541,6.111L0.782,5.345C1.005,5.986 1.576,6.362 2.356,6.362C3.039,6.362 3.554,6.139 3.554,5.568C3.554,4.315 -0.248,5.011 -0.248,2.476C-0.248,1.139 0.894,0.317 2.342,0.317C3.498,0.317 4.459,0.861 4.961,1.794L3.679,2.518C3.429,1.961 2.927,1.71 2.342,1.71C1.785,1.71 1.312,1.947 1.312,2.462C1.284,3.757 5.1,2.978 5.1,5.596Z" fill="#300F2B"/>
</svg>
