<svg width="8" height="8" viewBox="0 0 8 8" fill="none" xmlns="http://www.w3.org/2000/svg" xmlns:xlink="http://www.w3.org/1999/xlink">
<path d="M2.908,6.376C3.758,6.376 4.398,6 4.732,5.498L5.986,6.237C5.331,7.198 4.273,7.782 2.88,7.782C0.54,7.782 -0.964,6.181 -0.964,4.064C-0.964,1.975 0.554,0.345 2.769,0.345C4.872,0.345 6.32,2.044 6.32,4.078C6.32,4.287 6.292,4.51 6.264,4.718L0.638,4.718C0.875,5.805 1.766,6.376 2.908,6.376ZM4.788,3.451C4.579,2.239 3.688,1.71 2.769,1.71C1.627,1.71 0.847,2.393 0.638,3.451L4.788,3.451Z" fill="#300F2B"/>
</svg>
