<svg width="26" height="32" viewBox="0 0 26 32" fill="none" xmlns="http://www.w3.org/2000/svg" xmlns:xlink="http://www.w3.org/1999/xlink">
<path d="M13.774,-0.755C20.78,-0.755 25.327,6.251 24.492,14.787C24.445,15.53 24.352,16.272 24.213,16.968C22.775,24.438 17.347,30.237 10.944,30.237C4.495,30.237 -0.237,24.391 -0.423,16.968C-0.423,16.272 -0.423,15.53 -0.33,14.787C0.413,6.251 6.722,-0.755 13.774,-0.755ZM20.734,14.787C21.197,9.034 18.831,4.349 15.444,4.349C11.965,4.349 8.764,9.034 8.253,14.787C8.207,15.53 8.16,16.272 8.207,16.968C8.392,21.654 10.48,25.18 13.496,25.18C16.512,25.18 19.342,21.7 20.362,16.968C20.548,16.272 20.687,15.576 20.734,14.787Z" fill="#5B4690"/>
</svg>
