<svg width="22" height="22" viewBox="0 0 22 22" fill="none" xmlns="http://www.w3.org/2000/svg" xmlns:xlink="http://www.w3.org/1999/xlink">
<path d="M17.866,3.042C16.91,2.161 15.781,1.491 14.552,1.076C11.809,0.181 8.854,0.181 6.112,1.076C4.882,1.494 3.751,2.163 2.792,3.042C1.857,3.922 1.121,4.995 0.636,6.187C-0.387,8.925 -0.387,11.942 0.636,14.679C1.111,15.886 1.849,16.97 2.797,17.851C3.745,18.732 4.877,19.388 6.112,19.77C8.863,20.609 11.8,20.609 14.552,19.77C15.785,19.386 16.916,18.729 17.864,17.848C18.811,16.967 19.55,15.885 20.027,14.679C21.05,11.942 21.05,8.925 20.027,6.187C19.538,4.996 18.801,3.924 17.866,3.042ZM17.803,10.454C17.83,11.784 17.638,13.109 17.235,14.376C16.912,15.383 16.378,16.309 15.669,17.091C15.008,17.79 14.198,18.327 13.299,18.664C12.35,19.015 11.346,19.193 10.334,19.188C9.331,19.192 8.336,19.014 7.396,18.664C6.496,18.329 5.685,17.79 5.026,17.091C4.316,16.309 3.782,15.383 3.46,14.376C2.697,11.81 2.697,9.077 3.46,6.512C3.782,5.505 4.316,4.579 5.026,3.797C5.685,3.097 6.496,2.559 7.396,2.224C9.303,1.532 11.391,1.532 13.299,2.224C14.198,2.559 15.009,3.097 15.669,3.797C16.379,4.578 16.914,5.504 17.235,6.512C17.64,7.786 17.832,9.118 17.803,10.454Z" fill="#5B6670"/>
</svg>
