<svg width="14" height="22" viewBox="0 0 14 22" fill="none" xmlns="http://www.w3.org/2000/svg" xmlns:xlink="http://www.w3.org/1999/xlink">
<path d="M13.637,1.794C13.649,1.507 13.695,1.222 13.773,0.945L13.82,0.756L13.627,0.756C12.416,0.793 11.231,0.83 10.072,0.856C7.807,0.908 5.244,0.908 2.974,0.856C1.815,0.856 0.63,0.793 -0.581,0.756L-0.769,0.756L-0.727,0.945C-0.651,1.213 -0.606,1.49 -0.592,1.768C-0.599,2.054 -0.643,2.337 -0.722,2.612L-0.785,2.827L-0.565,2.796C-0.184,2.743 0.254,2.696 0.734,2.659L2.248,2.56C2.77,2.56 3.292,2.518 3.814,2.507L5.171,2.507C5.223,4.363 5.249,6.245 5.249,8.09L5.249,12.85C5.249,14.056 5.249,15.262 5.181,16.441C5.113,17.621 5.082,18.785 5.03,19.927L5.03,20.09L5.197,20.09C6.086,20.016 6.98,20.016 7.87,20.09L8.036,20.09L8.036,19.927C7.984,18.785 7.934,17.622 7.885,16.441C7.843,15.278 7.817,14.072 7.817,12.85L7.817,8.09C7.817,6.24 7.843,4.363 7.895,2.507L9.258,2.507C9.78,2.507 10.302,2.534 10.824,2.56L12.337,2.659C12.818,2.696 13.256,2.743 13.637,2.796L13.856,2.827L13.794,2.612C13.708,2.347 13.655,2.073 13.637,1.794Z" fill="#5B6670"/>
</svg>
