<svg width="6" height="8" viewBox="0 0 6 8" fill="none" xmlns="http://www.w3.org/2000/svg" xmlns:xlink="http://www.w3.org/1999/xlink">
<path d="M4.657,5.596C4.657,7.017 3.432,7.769 1.9,7.769C0.479,7.769 -0.538,7.128 -0.983,6.111L0.34,5.345C0.563,5.986 1.134,6.362 1.914,6.362C2.596,6.362 3.111,6.139 3.111,5.568C3.111,4.315 -0.691,5.011 -0.691,2.476C-0.691,1.139 0.451,0.317 1.9,0.317C3.056,0.317 4.017,0.861 4.518,1.794L3.237,2.518C2.986,1.961 2.485,1.71 1.9,1.71C1.343,1.71 0.869,1.947 0.869,2.462C0.841,3.757 4.657,2.978 4.657,5.596Z" fill="#300F2B"/>
</svg>
