<svg width="8" height="12" viewBox="0 0 8 12" fill="none" xmlns="http://www.w3.org/2000/svg" xmlns:xlink="http://www.w3.org/1999/xlink">
<path d="M3.825,1.933C2.525,1.933 1.134,2.444 1.134,3.696C1.134,4.81 2.433,5.135 3.917,5.413C6.005,5.738 8,6.155 8,8.475C8,10.795 5.773,11.537 3.778,11.537C1.969,11.537 0.206,10.888 -0.583,9.125L0.484,8.521C1.134,9.728 2.525,10.331 3.825,10.331C5.077,10.331 6.747,9.913 6.747,8.429C6.747,7.13 5.309,6.758 3.778,6.526C1.783,6.202 -0.165,5.738 -0.165,3.65C-0.212,1.516 2.015,0.773 3.778,0.773C5.309,0.773 6.794,1.098 7.675,2.629L6.701,3.232C6.144,2.351 4.938,1.933 3.825,1.933Z" fill="#5B4690"/>
</svg>
