<svg width="22" height="24" viewBox="0 0 22 24" fill="none" xmlns="http://www.w3.org/2000/svg" xmlns:xlink="http://www.w3.org/1999/xlink">
<path d="M18.29,4.908C16.476,3.159 13.8,2.2 11.457,2.2C5.512,2.2 2.277,6.66 2.277,11.749C2.277,16.439 5.249,20.832 11.522,20.832C13.702,20.832 15.914,20.139 17.829,18.489L17.829,13.003L10.63,13.003L10.63,10.46L20.436,10.46L20.436,19.611C18.092,22.123 15.222,23.542 11.489,23.542C3.268,23.542 -0.562,17.961 -0.562,11.749C-0.595,4.843 3.929,-0.475 11.457,-0.475C14.528,-0.475 17.598,0.68 19.942,2.992L18.29,4.908Z" clip-rule="evenodd" fill-rule="evenodd" fill="#FFFFFF"/>
</svg>
