<svg width="48" height="36" viewBox="0 0 48 36" fill="none" xmlns="http://www.w3.org/2000/svg" xmlns:xlink="http://www.w3.org/1999/xlink">
<path d="M44.297,34.531L3.703,34.531C2.672,34.531 1.797,34.172 1.078,33.453C0.359,32.734 0,31.859 0,30.828L0,3.172C0,2.141 0.359,1.266 1.078,0.547C1.797,-0.172 2.672,-0.531 3.703,-0.531L44.297,-0.531C45.328,-0.531 46.203,-0.172 46.922,0.547C47.641,1.266 48,2.141 48,3.172L48,30.828C48,31.859 47.641,32.734 46.922,33.453C46.203,34.172 45.328,34.531 44.297,34.531ZM44.297,32.703C44.297,32.703 44.328,32.703 44.391,32.703C44.453,32.703 44.484,32.703 44.484,32.703L24,17.188L2.578,32.328C2.766,32.422 2.953,32.508 3.141,32.586C3.328,32.664 3.516,32.703 3.703,32.703L44.297,32.703ZM46.172,3.172C46.172,2.609 46,2.156 45.656,1.813C45.312,1.469 44.859,1.297 44.297,1.297L3.703,1.297C3.141,1.297 2.688,1.469 2.344,1.813C2,2.156 1.828,2.609 1.828,3.172L1.828,30.641L23.438,15.359C23.625,15.266 23.812,15.219 24,15.219C24.188,15.219 24.375,15.266 24.562,15.359L45.984,31.391C46.078,31.297 46.133,31.203 46.148,31.109C46.164,31.016 46.172,30.922 46.172,30.828L46.172,3.172ZM12,6.828L6.469,6.828C6.188,6.828 5.961,6.75 5.789,6.594C5.617,6.438 5.531,6.219 5.531,5.938C5.531,5.656 5.617,5.43 5.789,5.258C5.961,5.086 6.188,5 6.469,5L12,5C12.281,5 12.508,5.086 12.68,5.258C12.852,5.43 12.938,5.656 12.938,5.938C12.938,6.219 12.852,6.438 12.68,6.594C12.508,6.75 12.281,6.828 12,6.828ZM19.406,10.531L6.469,10.531C6.188,10.531 5.961,10.445 5.789,10.273C5.617,10.102 5.531,9.875 5.531,9.594C5.531,9.344 5.617,9.133 5.789,8.961C5.961,8.789 6.188,8.703 6.469,8.703L19.406,8.703C19.656,8.703 19.867,8.789 20.039,8.961C20.211,9.133 20.297,9.344 20.297,9.594C20.297,9.875 20.211,10.102 20.039,10.273C19.867,10.445 19.656,10.531 19.406,10.531Z" fill="#FFFFFF"/>
</svg>
