<svg width="32" height="32" viewBox="0 0 32 32" fill="none" xmlns="http://www.w3.org/2000/svg" xmlns:xlink="http://www.w3.org/1999/xlink">
<path d="M16,0C18.122,0 20.157,0.843 21.657,2.343C23.157,3.843 24,5.878 24,8C24,10.122 23.157,12.157 21.657,13.657C20.157,15.157 18.122,16 16,16C13.878,16 11.843,15.157 10.343,13.657C8.843,12.157 8,10.122 8,8C8,5.878 8.843,3.843 10.343,2.343C11.843,0.843 13.878,0 16,0ZM16,20C24.84,20 32,23.58 32,28L32,32L0,32L0,28C0,23.58 7.16,20 16,20Z" fill="#FFFFFF"/>
</svg>
