<svg width="12" height="20" viewBox="0 0 12 20" fill="none" xmlns="http://www.w3.org/2000/svg" xmlns:xlink="http://www.w3.org/1999/xlink">
<path d="M10.852,18.381L10.919,18.15L10.684,18.198C10.176,18.299 9.662,18.367 9.145,18.402C8.56,18.449 7.918,18.486 7.25,18.512C6.582,18.538 5.882,18.554 5.204,18.554L3.398,18.554C3.398,18.203 3.367,17.72 3.361,17.149C3.361,16.468 3.361,15.576 3.361,14.528L3.361,11.791C3.361,11.498 3.361,11.267 3.361,11.063C3.361,10.858 3.361,10.79 3.361,10.664L4.567,10.664L6.347,10.664C6.984,10.664 7.621,10.701 8.242,10.738C8.863,10.774 9.442,10.822 9.896,10.874L10.095,10.874L10.058,10.68C10.005,10.416 9.977,10.147 9.975,9.878C9.976,9.6 10.004,9.322 10.058,9.05L10.095,8.856L9.902,8.856C9.5,8.892 9.072,8.924 8.623,8.95L7.156,9.034C6.634,9.06 6.034,9.086 5.392,9.102C4.75,9.118 4.134,9.128 3.367,9.128C3.367,8.788 3.367,8.321 3.367,7.723C3.367,7.042 3.367,6.345 3.367,5.626C3.367,4.908 3.367,4.332 3.408,3.813C3.45,3.294 3.455,2.801 3.476,2.24C4.317,2.24 5.042,2.24 5.642,2.282C6.242,2.324 6.874,2.34 7.417,2.376L8.957,2.486L10.57,2.596L10.757,2.596L10.721,2.408C10.669,2.144 10.643,1.875 10.643,1.606C10.643,1.336 10.67,1.068 10.721,0.804L10.757,0.625L10.575,0.625C9.745,0.662 8.931,0.699 8.122,0.725C6.556,0.777 4.818,0.777 3.215,0.725C2.396,0.725 1.576,0.662 0.751,0.625L0.595,0.625L0.595,0.783C0.647,1.962 0.699,3.147 0.746,4.326C0.793,5.506 0.814,6.722 0.814,7.917L0.814,12.677C0.814,13.873 0.814,15.073 0.746,16.253C0.678,17.432 0.647,18.601 0.595,19.781L0.595,19.938L0.751,19.938C1.581,19.901 2.422,19.88 3.252,19.88L8.252,19.88C9.072,19.88 9.902,19.88 10.711,19.938L10.914,19.938L10.857,19.739C10.798,19.518 10.772,19.291 10.778,19.062C10.778,18.937 10.778,18.795 10.778,18.643C10.796,18.554 10.82,18.466 10.852,18.381Z" fill="#5B6670"/>
</svg>
