<svg width="42" height="32" viewBox="0 0 42 32" fill="none" xmlns="http://www.w3.org/2000/svg" xmlns:xlink="http://www.w3.org/1999/xlink">
<path d="M36.386,-0.755C39.17,-0.755 41.768,1.426 41.304,6.483C40.979,10.194 40.191,13.767 39.077,16.968C36.293,24.716 31.422,30.237 25.53,30.237C21.679,30.237 19.777,27.778 18.988,25.505C16.112,28.752 13.746,30.237 11.333,30.237C5.998,30.237 4.188,25.505 4.467,22.907L4.977,16.968L5.905,6.854C5.998,5.972 5.348,5.23 4.374,5.23C3.492,5.23 2.657,5.972 2.564,6.854L2.286,9.359L-0.173,9.359L0.105,6.854C0.477,3.096 3.771,0.08 7.529,0.08C11.24,0.08 14.07,3.142 13.699,6.854L12.771,16.968L12.4,20.912C12.307,21.979 12.864,23.835 14.441,23.835C16.483,23.835 17.55,22.396 18.895,20.169L19.174,17.014L20.612,0.591L28.406,0.591L26.922,17.014L26.551,20.958C26.411,22.304 26.875,23.881 28.592,23.881C31.7,23.881 33.881,20.819 35.226,17.061C36.108,14.555 36.665,11.772 36.943,9.313C36.943,9.313 36.154,9.452 35.412,9.452C32.628,9.452 30.633,7.132 30.865,4.349C31.19,1.565 33.603,-0.755 36.386,-0.755Z" fill="#5B4690"/>
</svg>
