<svg width="12" height="14" viewBox="0 0 12 14" fill="none" xmlns="http://www.w3.org/2000/svg" xmlns:xlink="http://www.w3.org/1999/xlink">
<path d="M11.239,11.254C10.618,11.883 9.877,12.383 9.06,12.721C8.242,13.06 7.364,13.232 6.479,13.226C1.963,13.226 -0.293,10.217 -0.311,6.587C-0.311,3.034 1.95,-0.187 6.479,-0.187C7.345,-0.215 8.207,-0.055 9.005,0.283C9.803,0.62 10.517,1.127 11.099,1.767L10.301,2.568C9.284,1.564 7.91,1.001 6.479,1.001C2.836,1.001 0.994,3.683 0.994,6.569C0.994,9.617 2.836,12.02 6.479,12.02C7.947,12.019 9.356,11.446 10.406,10.422L11.239,11.254Z" fill="#5B4D47"/>
</svg>
