<svg width="6" height="6" viewBox="0 0 6 6" fill="none" xmlns="http://www.w3.org/2000/svg" xmlns:xlink="http://www.w3.org/1999/xlink">
<path d="M3.079,-0.261C2.267,-0.261 1.403,0.057 1.403,0.832C1.403,1.524 2.198,1.702 3.148,1.877C4.422,2.077 5.684,2.312 5.684,3.766C5.684,5.22 4.309,5.655 3.065,5.655C1.935,5.655 0.862,5.246 0.369,4.184L1.024,3.801C1.236,4.152 1.537,4.441 1.897,4.637C2.258,4.834 2.664,4.932 3.075,4.92C3.846,4.92 4.877,4.676 4.877,3.74C4.877,2.948 4.004,2.721 3.035,2.578C1.805,2.386 0.609,2.103 0.609,0.815C0.609,-0.474 1.949,-0.966 3.052,-0.966C4,-0.966 4.903,-0.774 5.466,0.188L4.863,0.562C4.654,0.291 4.383,0.075 4.072,-0.068C3.761,-0.212 3.421,-0.278 3.079,-0.261Z" fill="#5B4D47"/>
</svg>
