<svg width="12" height="14" viewBox="0 0 12 14" fill="none" xmlns="http://www.w3.org/2000/svg" xmlns:xlink="http://www.w3.org/1999/xlink">
<path d="M11.743,11.254C11.124,11.884 10.383,12.383 9.566,12.722C8.749,13.061 7.872,13.232 6.987,13.226C2.48,13.226 0.22,10.217 0.203,6.587C0.203,3.034 2.458,-0.187 6.987,-0.187C7.854,-0.215 8.717,-0.054 9.515,0.283C10.314,0.62 11.029,1.127 11.612,1.767L10.814,2.568C9.796,1.562 8.42,0.998 6.987,1.001C3.357,1.001 1.507,3.683 1.507,6.569C1.507,9.617 3.357,12.02 6.987,12.02C8.455,12.02 9.865,11.446 10.914,10.422L11.743,11.254Z" fill="#5B4D47"/>
</svg>
