<svg width="6" height="8" viewBox="0 0 6 8" fill="none" xmlns="http://www.w3.org/2000/svg" xmlns:xlink="http://www.w3.org/1999/xlink">
<path d="M5.883,5.596C5.883,7.017 4.657,7.769 3.125,7.769C1.705,7.769 0.688,7.128 0.242,6.111L1.566,5.345C1.788,5.986 2.359,6.362 3.139,6.362C3.822,6.362 4.337,6.139 4.337,5.568C4.337,4.315 0.535,5.011 0.535,2.476C0.535,1.139 1.677,0.317 3.125,0.317C4.281,0.317 5.242,0.861 5.744,1.794L4.463,2.518C4.212,1.961 3.71,1.71 3.125,1.71C2.568,1.71 2.095,1.947 2.095,2.462C2.067,3.757 5.883,2.978 5.883,5.596Z" fill="#300F2B"/>
</svg>
