<svg width="58" height="32" viewBox="0 0 58 32" fill="none" xmlns="http://www.w3.org/2000/svg" xmlns:xlink="http://www.w3.org/1999/xlink">
<path d="M51.492,30.78L51.492,17.941L38.223,17.941L38.223,30.78L32.466,30.78L32.466,-0.256L38.223,-0.256L38.223,12.615L51.492,12.615L51.492,-0.256L57.204,-0.256L57.204,30.78L51.492,30.78ZM22.211,6.473C22.65,7.277 22.886,8.42 22.886,9.761L22.886,30.78L28.484,30.78L28.484,7.999C28.484,5.837 28.018,3.997 27.096,2.525C25.683,0.367 23.35,-0.78 20.364,-0.78C16.441,-0.78 13.5,1.093 10.906,3.626L9.616,4.885L9.616,-0.256L0.037,-0.256L0.037,4.237L4.278,4.237L4.278,30.78L9.878,30.78L9.878,7.904L10.152,7.677C12.082,6.077 15.01,4.171 18.015,4.171C20.483,4.171 21.659,5.421 22.211,6.473Z" clip-rule="evenodd" fill-rule="evenodd" fill="#FFFFFF"/>
</svg>
