<svg width="8" height="8" viewBox="0 0 8 8" fill="none" xmlns="http://www.w3.org/2000/svg" xmlns:xlink="http://www.w3.org/1999/xlink">
<path d="M3.028,6.376C3.878,6.376 4.518,6 4.853,5.498L6.106,6.237C5.451,7.198 4.393,7.782 3,7.782C0.66,7.782 -0.844,6.181 -0.844,4.064C-0.844,1.975 0.674,0.345 2.889,0.345C4.992,0.345 6.44,2.044 6.44,4.078C6.44,4.287 6.412,4.51 6.385,4.718L0.758,4.718C1.009,5.805 1.9,6.376 3.028,6.376ZM4.908,3.451C4.699,2.239 3.808,1.71 2.889,1.71C1.747,1.71 0.967,2.393 0.758,3.451L4.908,3.451Z" fill="#300F2B"/>
</svg>
