<svg width="24" height="14" viewBox="0 0 24 14" fill="none" xmlns="http://www.w3.org/2000/svg" xmlns:xlink="http://www.w3.org/1999/xlink">
<path d="M22.104,13.017L23.919,13.017L23.919,0.026L22.104,0.026L22.104,5.686L15.507,5.686L15.507,0.026L13.674,0.026L13.674,13.026L15.507,13.026L15.507,7.366L22.104,7.366L22.104,13.017ZM10.145,13.017L11.89,13.017L11.89,3.309C11.923,2.529 11.739,1.756 11.358,1.075C11.059,0.646 10.655,0.3 10.185,0.072C9.714,-0.157 9.192,-0.261 8.67,-0.231C7.252,-0.231 6.052,0.179 4.625,1.424L3.547,2.355L3.547,0.026L0.013,0.026L0.013,1.293L1.898,1.293L1.898,13.047L3.643,13.047L3.648,3.509L4.084,3.156C4.992,2.416 6.196,1.263 7.636,1.263C8.077,1.233 8.518,1.331 8.905,1.545C9.292,1.759 9.608,2.079 9.817,2.469C10.063,2.975 10.18,3.534 10.158,4.097L10.145,13.017Z" fill="#5B4D47"/>
</svg>
