<svg width="34" height="44" viewBox="0 0 34 44" fill="none" xmlns="http://www.w3.org/2000/svg" xmlns:xlink="http://www.w3.org/1999/xlink">
<path d="M15.96,44C13.697,44 11.563,43.57 9.558,42.711C7.552,41.823 5.798,40.634 4.294,39.145C2.79,37.655 1.608,35.908 0.749,33.902C-0.11,31.897 -0.54,29.749 -0.54,27.457C-0.54,24.048 0.262,20.74 1.866,17.531C3.47,14.294 5.261,11.415 7.237,8.895C9.214,6.374 11.047,4.326 12.737,2.75C14.427,1.174 15.358,0.315 15.53,0.172C15.588,0.115 15.652,0.072 15.724,0.043C15.795,0.014 15.874,0 15.96,0C16.046,0 16.125,0.014 16.196,0.043C16.268,0.072 16.332,0.115 16.39,0.172C16.562,0.286 17.493,1.132 19.183,2.707C20.873,4.254 22.699,6.288 24.661,8.809C26.623,11.329 28.421,14.194 30.054,17.402C31.658,20.639 32.46,23.991 32.46,27.457C32.46,29.749 32.03,31.897 31.171,33.902C30.312,35.908 29.13,37.655 27.626,39.145C26.122,40.634 24.368,41.823 22.362,42.711C20.357,43.57 18.223,44 15.96,44ZM15.96,1.59C15.33,2.163 14.184,3.28 12.522,4.941C10.861,6.603 9.164,8.615 7.431,10.979C5.698,13.342 4.172,15.941 2.855,18.777C1.508,21.642 0.835,24.535 0.835,27.457C0.835,29.548 1.236,31.51 2.038,33.344C2.812,35.206 3.886,36.817 5.261,38.178C6.636,39.538 8.24,40.62 10.073,41.422C11.907,42.224 13.869,42.625 15.96,42.625C18.051,42.625 20.013,42.224 21.847,41.422C23.68,40.62 25.284,39.538 26.659,38.178C28.034,36.817 29.108,35.206 29.882,33.344C30.684,31.51 31.085,29.548 31.085,27.457C31.085,24.478 30.412,21.556 29.065,18.691C27.748,15.827 26.222,13.22 24.489,10.871C22.756,8.522 21.059,6.531 19.397,4.898C17.736,3.266 16.59,2.163 15.96,1.59ZM15.96,35.75C13.697,35.75 11.756,34.941 10.138,33.322C8.519,31.704 7.71,29.763 7.71,27.5C7.71,25.237 8.519,23.296 10.138,21.678C11.756,20.059 13.697,19.25 15.96,19.25C18.223,19.25 20.164,20.059 21.782,21.678C23.401,23.296 24.21,25.237 24.21,27.5C24.21,29.763 23.401,31.704 21.782,33.322C20.164,34.941 18.223,35.75 15.96,35.75ZM15.96,20.625C14.069,20.625 12.451,21.298 11.105,22.645C9.758,23.991 9.085,25.609 9.085,27.5C9.085,29.391 9.758,31.009 11.105,32.355C12.451,33.702 14.069,34.375 15.96,34.375C17.851,34.375 19.469,33.702 20.815,32.355C22.162,31.009 22.835,29.391 22.835,27.5C22.835,25.609 22.162,23.991 20.815,22.645C19.469,21.298 17.851,20.625 15.96,20.625Z" fill="#7D7D7D"/>
</svg>
