<svg width="34" height="32" viewBox="0 0 34 32" fill="none" xmlns="http://www.w3.org/2000/svg" xmlns:xlink="http://www.w3.org/1999/xlink">
<path d="M33.631,20.911L33.353,23.51C32.982,27.221 29.688,30.283 25.93,30.283C22.218,30.283 19.388,27.221 19.759,23.51L20.362,17.014L21.244,7.271C21.383,5.972 20.362,4.905 19.11,4.905C17.811,4.905 16.651,5.926 14.424,9.127L12.522,11.772L12.058,17.014L10.991,29.309L3.243,29.309L4.356,17.014L5.284,6.9C5.377,6.019 4.727,5.276 3.799,5.276C2.918,5.276 2.083,6.019 1.99,6.9L1.712,9.406L-0.794,9.406L-0.515,6.9C-0.144,3.142 3.15,0.127 6.861,0.127C10.341,0.127 12.986,2.771 13.078,6.112L13.913,4.905C15.537,2.4 18.043,-0.662 22.172,-0.662C26.394,-0.662 29.456,2.725 29.131,6.947L28.203,17.061L27.6,23.556C27.507,24.437 28.157,25.18 29.177,25.18C30.012,25.18 30.848,24.437 30.94,23.556L31.219,20.958L33.631,20.958L33.631,20.911Z" fill="#5B4690"/>
</svg>
