<svg width="18" height="22" viewBox="0 0 18 22" fill="none" xmlns="http://www.w3.org/2000/svg" xmlns:xlink="http://www.w3.org/1999/xlink">
<path d="M16.29,4.515C16.339,3.341 16.389,2.145 16.441,0.929L16.441,0.751L16.269,0.782L15.58,0.877C15.154,0.929 14.723,0.929 14.296,0.877L13.612,0.782L13.435,0.751L13.435,0.929C13.487,2.145 13.537,3.341 13.586,4.515C13.633,5.694 13.654,6.9 13.654,8.09L13.654,8.913L10.919,8.971C10.021,8.971 9.056,8.971 8.043,8.971C7.031,8.971 6.06,8.971 5.167,8.971L2.427,8.913L2.427,8.09C2.427,6.884 2.453,5.684 2.495,4.515C2.536,3.346 2.594,2.145 2.646,0.929L2.646,0.751L2.468,0.782L1.785,0.877C1.358,0.929 0.927,0.929 0.501,0.877L-0.183,0.782L-0.36,0.751L-0.36,0.929C-0.308,2.145 -0.258,3.341 -0.209,4.515C-0.167,5.7 -0.141,6.9 -0.141,8.09L-0.141,12.85C-0.141,14.04 -0.167,15.246 -0.209,16.441C-0.251,17.636 -0.308,18.784 -0.36,19.927L-0.36,20.09L-0.193,20.09C0.696,20.016 1.59,20.016 2.479,20.09L2.646,20.09L2.646,19.927C2.594,18.784 2.543,17.622 2.495,16.441C2.453,15.262 2.427,14.056 2.427,12.85L2.427,10.501C3.366,10.501 4.28,10.47 5.162,10.465C7.015,10.465 9.066,10.465 10.903,10.465C11.785,10.465 12.699,10.465 13.639,10.501L13.639,12.85C13.639,14.04 13.639,15.251 13.571,16.441C13.503,17.631 13.472,18.784 13.419,19.927L13.419,20.09L13.586,20.09C14.476,20.016 15.369,20.016 16.259,20.09L16.426,20.09L16.426,19.927C16.374,18.784 16.323,17.622 16.274,16.441C16.233,15.262 16.207,14.056 16.207,12.85L16.207,8.09C16.222,6.869 16.248,5.668 16.29,4.515Z" fill="#5B6670"/>
</svg>
