<svg width="86" height="72" viewBox="0 0 86 72" fill="none" xmlns="http://www.w3.org/2000/svg" xmlns:xlink="http://www.w3.org/1999/xlink">
<path d="M75.274,46.991L75.274,28.03L55.66,28.03L55.66,46.991L47.133,46.991L47.133,1.185L55.66,1.185L55.66,20.2L75.274,20.2L75.274,1.132L83.694,1.132L83.694,46.938L75.274,46.938L75.274,46.991ZM31.997,11.092C32.637,12.264 33.01,13.968 33.01,15.939L33.01,46.938L41.27,46.938L41.27,13.329C41.27,10.133 40.578,7.417 39.245,5.233C37.113,2.091 33.649,0.386 29.279,0.386C23.47,0.386 19.153,3.156 15.315,6.884L13.397,8.749L13.397,1.132L-0.78,1.132L-0.78,7.737L5.509,7.737L5.509,46.938L13.77,46.938L13.77,13.223L14.196,12.903C17.074,10.559 21.391,7.737 25.815,7.737C29.439,7.683 31.198,9.547 31.997,11.092ZM15.102,70.054L15.102,64.302L8.174,64.302L8.174,70.054L5.509,70.054L5.509,55.886L8.174,55.886L8.174,61.851L15.155,61.851L15.155,55.886L17.82,55.886L17.82,70.054L15.102,70.054ZM34.502,63.023C34.449,66.698 32.21,70.373 27.2,70.373C22.191,70.373 19.899,66.805 19.899,63.076C19.899,58.602 23.15,55.62 27.254,55.62C32.104,55.62 34.502,59.348 34.502,63.023ZM27.2,67.87C30.558,67.87 31.784,65.367 31.837,63.023C31.89,60.68 30.505,58.017 27.254,57.963C24.216,57.963 22.457,60.254 22.51,63.023C22.617,65.42 23.843,67.87 27.2,67.87ZM39.299,58.283L34.822,58.283L34.822,55.833C38.925,55.833 42.39,55.833 46.494,55.833L46.494,58.283L42.017,58.283L42.017,70.054L39.352,70.054L39.352,58.283L39.299,58.283ZM58.752,70.001L48.092,70.001C48.092,65.26 48.092,60.52 48.092,55.833L58.698,55.833L58.698,58.443L50.757,58.443L50.757,61.692L58.432,61.692L58.432,64.195L50.757,64.195L50.757,67.391L58.698,67.391L58.698,70.001L58.752,70.001ZM64.241,55.833L64.241,67.551L71.542,67.551L71.542,70.001L61.576,70.001L61.576,55.833L64.241,55.833ZM82.202,59.242C81.722,58.443 80.39,57.644 78.844,57.644C76.872,57.644 75.913,58.496 75.913,59.508C75.913,60.733 77.352,61.106 79.057,61.266C82.042,61.638 84.76,62.384 84.76,65.793C84.76,68.935 81.935,70.32 78.791,70.32C75.913,70.32 73.674,69.415 72.608,66.858L74.847,65.686C75.486,67.231 77.138,67.923 78.844,67.923C80.549,67.923 82.096,67.338 82.096,65.793C82.096,64.461 80.709,63.929 78.791,63.716C75.913,63.396 73.195,62.597 73.195,59.401C73.195,56.472 76.073,55.3 78.685,55.247C80.87,55.247 83.161,55.886 84.281,58.07L82.202,59.242Z" fill="#003A70"/>
</svg>
