<svg width="290" height="42" viewBox="0 0 290 42" fill="none" xmlns="http://www.w3.org/2000/svg" xmlns:xlink="http://www.w3.org/1999/xlink">
<path d="M25.552,41.043L30.848,41.043L30.848,0.001L25.552,0.001L25.552,41.043ZM42.68,0.001L37.384,0.001C40.111,-0.024 42.816,0.489 45.343,1.509C47.87,2.529 50.168,4.037 52.105,5.945C54.042,7.853 55.58,10.123 56.629,12.625C57.679,15.127 58.219,17.811 58.219,20.522C58.219,23.233 57.679,25.917 56.629,28.419C55.58,30.921 54.042,33.191 52.105,35.099C50.168,37.007 47.87,38.515 45.343,39.535C42.816,40.556 40.111,41.068 37.384,41.043L42.68,41.043C48.123,40.994 53.326,38.81 57.158,34.967C60.989,31.124 63.139,25.933 63.139,20.522C63.139,15.112 60.989,9.92 57.158,6.077C53.326,2.234 48.123,0.05 42.68,0.001ZM8.933,9.778C11.163,10.679 13.258,11.559 14.967,12.377L14.967,10.994C13.68,10.935 12.393,10.635 10.163,9.816L9.791,9.676L8.985,9.354L8.985,4.605L9.791,4.279L10.153,4.139L14.956,2.221L14.956,0.004L0.002,6.058L0.002,6.138L8.549,9.617L8.933,9.778ZM8.23,9.052L3.083,6.98L8.23,4.914L8.23,9.052ZM8.23,28.116L8.23,33.554L8.988,33.334L8.988,29.992L13.636,29.992C14.359,30.892 14.836,32.27 14.836,33.691C14.896,37.048 11.8,39.367 7.597,39.326C3.232,39.326 0.391,37.268 0.391,34.09C0.391,32.112 1.537,30.492 3.328,29.433L2.423,28.433C0.995,29.653 0.071,31.673 0.071,33.911C0.011,38.226 3.167,41.625 7.732,41.565C12.397,41.565 15.193,38.446 15.193,33.789C15.226,31.749 14.583,29.754 13.363,28.113L8.23,28.116ZM70.803,41.009L75.435,41.009L75.435,8.13L70.803,8.13L70.803,41.009ZM14.963,16.328L14.963,14.282L0.323,14.282L0.323,16.328L8.226,16.328L8.226,23.444L0.323,23.444L0.323,25.49L14.963,25.49L14.963,23.444L8.985,23.444L8.985,16.328L14.963,16.328ZM127.412,39.562C120.05,39.562 114.598,33.554 114.598,23.703C114.598,14.942 119.23,8.302 126.092,8.302C130.318,8.302 134.042,10.877 136.451,14.896L138.722,12.863C135.996,9.748 131.407,7.577 126.319,7.577C116.823,7.441 109.372,14.531 109.506,24.829C109.506,34.809 116.231,41.54 125.363,41.54C131.368,41.54 136.085,38.694 139.175,33.682L138.63,33.373C135.862,37.664 131.728,39.562 127.412,39.562ZM220.962,40.192L218.326,40.192L218.326,24.297L220.418,24.297C225.098,24.297 228.458,24.702 229.958,25.381L230.048,25.381L230.048,22.579L229.958,22.579C228.504,23.168 225.326,23.483 220.418,23.483L218.326,23.483L218.326,8.941L220.826,8.941C225.026,8.945 229.2,9.632 233.178,10.974L233.268,10.974L232.724,8.13L213.68,8.13L213.68,41.006L233.264,41.006L234.122,37.981L234.03,37.981C229.914,39.471 225.188,40.192 220.962,40.192ZM260.626,16.439C260.626,10.883 255.994,8.13 247.224,8.13L239.09,8.13L239.09,41.006L243.722,41.006L243.722,26.148L246.764,26.148C248.038,26.148 248.446,26.374 249.128,27.097L262.578,42L262.85,42L262.85,36.264L252.672,25.02C257.538,23.348 260.626,20.774 260.626,16.439ZM247.91,25.425C246.684,25.425 244.686,25.335 243.732,25.154L243.732,8.851L247.048,8.851C252.908,8.851 255.954,11.832 255.954,16.754C255.946,21.497 252.714,25.425 247.91,25.425ZM286.07,8.13C285.252,11.516 283.344,15.851 280.3,21.135L277.934,25.296L268.214,8.13L262.896,8.13L273.704,26.916L273.704,41.006L278.336,41.006L278.336,26.374L281.118,21.544C283.89,16.577 286.524,12.106 288.932,8.133L286.07,8.13ZM160.625,7.587C150.81,7.451 142.996,14.632 143.126,24.883C143.126,35.044 150.488,41.548 160.028,41.548C169.843,41.683 177.657,34.502 177.527,24.251C177.527,14.089 170.165,7.587 160.625,7.587ZM160.534,40.825C153.31,40.825 148.221,34.187 148.221,24.387C148.221,14.768 152.946,8.309 160.261,8.309C167.395,8.309 172.442,14.993 172.442,24.748C172.438,34.412 167.667,40.825 160.534,40.825ZM100.06,24.796C98.923,24.029 97.424,23.262 95.653,22.409L93.38,21.369C88.973,19.292 86.518,17.892 86.293,14.098C86.293,10.802 88.882,8.317 92.927,8.317C96.425,8.317 99.65,10.169 101.968,12.519L102.696,9.988C100.513,8.725 96.88,7.601 93.431,7.601C87.163,7.587 82.977,11.289 82.977,16.258C82.977,19.554 84.885,21.949 87.202,23.439C88.53,24.253 89.911,24.978 91.337,25.606L93.608,26.6C97.743,28.541 100.695,30.168 100.877,34.412C100.877,36.264 100.191,37.8 98.787,39.016C97.415,40.235 95.653,40.822 93.469,40.822C91.608,40.822 89.745,40.416 87.791,39.558C85.885,38.701 84.386,37.618 83.294,36.31L82.476,39.154C83.612,39.741 85.202,40.329 87.247,40.825C89.149,41.296 91.102,41.539 93.063,41.548C99.469,41.548 104.149,37.664 104.149,32.064C104.147,28.587 102.376,26.239 100.06,24.793L100.06,24.796ZM204.196,13.868C203.65,15.9 202.652,18.7 201.196,22.223L196.062,34.823L185.254,8.133L180.21,8.133L193.977,41.725L194.159,41.725L202.064,22.532L202.428,21.679C204.472,16.666 206.472,11.97 208.334,8.131L205.194,8.131C205.078,10.076 204.744,12.001 204.196,13.871L204.196,13.868Z" fill="#010101"/>
</svg>
