<svg width="42" height="42" viewBox="0 0 42 42" fill="none" xmlns="http://www.w3.org/2000/svg" xmlns:xlink="http://www.w3.org/1999/xlink">
<path d="M20.586,33.103C21.31,33.103 21.923,32.853 22.423,32.352C22.924,31.852 23.174,31.24 23.172,30.517C23.171,29.794 22.921,29.182 22.423,28.68C21.926,28.178 21.313,27.928 20.586,27.931C19.859,27.934 19.248,28.184 18.751,28.682C18.254,29.18 18.004,29.792 18,30.517C17.996,31.243 18.246,31.855 18.751,32.354C19.256,32.854 19.868,33.103 20.586,33.103ZM18.724,25.138L22.552,25.138C22.552,24 22.681,23.103 22.941,22.448C23.2,21.793 23.932,20.897 25.138,19.759C26.034,18.862 26.741,18.008 27.259,17.197C27.776,16.386 28.034,15.412 28.034,14.276C28.034,12.345 27.328,10.862 25.914,9.828C24.5,8.793 22.828,8.276 20.897,8.276C18.931,8.276 17.337,8.793 16.113,9.828C14.89,10.862 14.036,12.103 13.552,13.552L16.966,14.897C17.138,14.276 17.526,13.603 18.13,12.879C18.734,12.155 19.657,11.793 20.897,11.793C22,11.793 22.828,12.095 23.379,12.699C23.931,13.303 24.207,13.967 24.207,14.69C24.207,15.379 24,16.026 23.586,16.63C23.172,17.235 22.655,17.794 22.034,18.31C20.517,19.655 19.586,20.672 19.241,21.362C18.897,22.052 18.724,23.31 18.724,25.138ZM20.69,41.379C17.828,41.379 15.138,40.837 12.621,39.751C10.103,38.666 7.914,37.191 6.052,35.328C4.19,33.464 2.716,31.274 1.63,28.759C0.545,26.243 0.001,23.553 0,20.69C-0.001,17.826 0.542,15.137 1.63,12.621C2.719,10.105 4.192,7.915 6.052,6.052C7.911,4.188 10.101,2.715 12.621,1.63C15.141,0.546 17.83,0.003 20.69,0C23.549,-0.003 26.239,0.541 28.759,1.63C31.279,2.72 33.468,4.194 35.328,6.052C37.187,7.91 38.661,10.099 39.751,12.621C40.841,15.142 41.383,17.832 41.379,20.69C41.375,23.548 40.832,26.237 39.749,28.759C38.666,31.28 37.192,33.47 35.328,35.328C33.463,37.186 31.273,38.66 28.759,39.751C26.244,40.842 23.554,41.385 20.69,41.379ZM20.69,37.241C25.31,37.241 29.224,35.638 32.431,32.431C35.638,29.224 37.241,25.31 37.241,20.69C37.241,16.069 35.638,12.155 32.431,8.948C29.224,5.741 25.31,4.138 20.69,4.138C16.069,4.138 12.155,5.741 8.948,8.948C5.741,12.155 4.138,16.069 4.138,20.69C4.138,25.31 5.741,29.224 8.948,32.431C12.155,35.638 16.069,37.241 20.69,37.241Z" fill="#FFFFFF"/>
</svg>
