<svg width="12" height="22" viewBox="0 0 12 22" fill="none" xmlns="http://www.w3.org/2000/svg" xmlns:xlink="http://www.w3.org/1999/xlink">
<path d="M10.765,19.193C10.776,18.925 10.82,18.659 10.896,18.402L10.974,18.145L10.76,18.176C9.486,18.352 8.204,18.457 6.918,18.491C5.749,18.517 4.538,18.533 3.317,18.533C3.317,17.222 3.28,15.744 3.265,14.098C3.249,12.452 3.238,10.428 3.238,8.053C3.238,6.848 3.238,5.647 3.306,4.478C3.374,3.309 3.4,2.109 3.458,0.893L3.458,0.714L3.286,0.746L2.602,0.84C2.173,0.893 1.741,0.893 1.312,0.84L0.629,0.746L0.456,0.714L0.456,0.893C0.515,2.109 0.566,3.304 0.608,4.478C0.655,5.653 0.681,6.853 0.681,8.053L0.681,12.813C0.681,14.014 0.655,15.22 0.608,16.404C0.561,17.589 0.514,18.748 0.456,19.89L0.456,20.048L0.613,20.048C1.479,20.011 2.335,19.99 3.155,19.99L8.239,19.99C9.085,19.99 9.935,19.99 10.765,20.048L10.974,20.048L10.911,19.848C10.833,19.638 10.783,19.417 10.765,19.193Z" fill="#5B6670"/>
</svg>
