<svg width="46" height="42" viewBox="0 0 46 42" fill="none" xmlns="http://www.w3.org/2000/svg" xmlns:xlink="http://www.w3.org/1999/xlink">
<path d="M44.288,24.556C44.288,24.642 44.317,24.7 44.374,24.728C44.431,24.757 44.46,24.8 44.46,24.857C44.46,24.943 44.453,25.029 44.439,25.115C44.424,25.201 44.374,25.287 44.288,25.373L44.288,30.058C44.288,32.007 43.644,33.662 42.355,35.023C41.065,36.384 39.447,37.065 37.499,37.065L34.577,37.065L34.577,39.472C34.577,39.472 34.52,39.608 34.405,39.881C34.291,40.153 34.076,40.289 33.761,40.289C33.417,40.289 33.195,40.153 33.095,39.881C32.995,39.608 32.944,39.472 32.944,39.472L32.944,37.065L11.847,37.065L11.847,39.472C11.847,39.472 11.789,39.608 11.675,39.881C11.56,40.153 11.345,40.289 11.03,40.289C10.687,40.289 10.465,40.153 10.364,39.881C10.264,39.608 10.214,39.472 10.214,39.472L10.214,37.065L7.292,37.065C5.43,37.065 3.826,36.363 2.48,34.959C1.133,33.555 0.46,31.864 0.46,29.886L0.46,24.857L0.46,6.847C0.46,4.812 1.112,3.114 2.415,1.753C3.718,0.392 5.344,-0.289 7.292,-0.289L37.499,-0.289C39.361,-0.289 40.958,0.413 42.29,1.817C43.622,3.222 44.288,4.898 44.288,6.847C44.288,6.847 44.288,6.854 44.288,6.868C44.288,6.882 44.288,6.933 44.288,7.019L44.288,24.556ZM2.093,29.886C2.093,31.434 2.616,32.745 3.661,33.82C4.707,34.894 5.917,35.432 7.292,35.432L10.214,35.432L10.214,29.758C10.214,29.414 10.307,29.192 10.493,29.091C10.679,28.991 10.858,28.941 11.03,28.941C11.174,28.941 11.345,28.991 11.546,29.091C11.746,29.192 11.847,29.414 11.847,29.758L11.847,35.432L32.944,35.432L32.944,29.758C32.944,29.758 32.995,29.621 33.095,29.349C33.195,29.077 33.417,28.941 33.761,28.941C34.076,28.941 34.291,29.077 34.405,29.349C34.52,29.621 34.577,29.758 34.577,29.758L34.577,35.432L37.499,35.432C38.96,35.432 40.185,34.916 41.173,33.884C42.161,32.852 42.655,31.52 42.655,29.886L42.655,25.502L2.093,25.502L2.093,29.886ZM37.499,1.302L7.292,1.302C5.831,1.302 4.599,1.817 3.597,2.849C2.594,3.881 2.093,5.213 2.093,6.847L2.093,24.212L42.655,24.212L42.655,6.847C42.655,6.847 42.655,6.839 42.655,6.825C42.655,6.811 42.655,6.761 42.655,6.675C42.655,5.213 42.14,3.952 41.108,2.892C40.077,1.832 38.874,1.302 37.499,1.302ZM8.581,19.183L11.804,19.183L11.804,15.959L8.581,15.959L8.581,19.183ZM16.702,19.183L19.925,19.183L19.925,15.959L16.702,15.959L16.702,19.183ZM8.581,11.059L11.804,11.059L11.804,7.835L8.581,7.835L8.581,11.059ZM16.702,11.059L19.925,11.059L19.925,7.835L16.702,7.835L16.702,11.059ZM24.823,19.183L28.046,19.183L28.046,15.959L24.823,15.959L24.823,19.183ZM32.944,19.183L36.167,19.183L36.167,15.959L32.944,15.959L32.944,19.183ZM24.823,11.059L28.046,11.059L28.046,7.835L24.823,7.835L24.823,11.059ZM32.944,11.059L36.167,11.059L36.167,7.835L32.944,7.835L32.944,11.059Z" fill="#7D7D7D"/>
</svg>
