<svg width="48" height="48" viewBox="0 0 48 48" fill="none" xmlns="http://www.w3.org/2000/svg" xmlns:xlink="http://www.w3.org/1999/xlink">
<path d="M11.438,41.094C11.438,39.437 10.867,38.039 9.727,36.898C8.586,35.758 7.203,35.187 5.578,35.187C3.953,35.187 2.57,35.758 1.43,36.898C0.289,38.039 -0.281,39.437 -0.281,41.094C-0.281,42.719 0.289,44.101 1.43,45.242C2.57,46.383 3.953,46.953 5.578,46.953C7.203,46.953 8.586,46.383 9.727,45.242C10.867,44.101 11.438,42.719 11.438,41.094ZM10.594,30.969L0.656,30.969L0.656,-0.953L10.594,-0.953L10.594,30.969ZM26.438,31.016L16.922,31.016L16.922,-0.953L26.438,-0.953C26.438,-0.953 26.438,-0.313 26.438,0.969C26.438,2.25 26.438,3.789 26.438,5.586C26.438,7.383 26.438,9.219 26.438,11.094C26.438,13 26.438,14.578 26.438,15.828C26.438,18.078 26.945,19.836 27.961,21.101C28.977,22.367 30.484,23 32.484,23C34.297,23 35.648,22.375 36.539,21.125C37.43,19.875 37.875,18.109 37.875,15.828C37.875,14.672 37.875,13.141 37.875,11.234C37.875,9.359 37.875,7.516 37.875,5.703C37.875,3.891 37.875,2.328 37.875,1.016C37.875,-0.297 37.875,-0.953 37.875,-0.953L47.719,-0.953C47.719,-0.953 47.719,-0.297 47.719,1.016C47.719,2.297 47.719,3.937 47.719,5.937C47.719,7.937 47.719,10.125 47.719,12.5C47.719,14.875 47.719,17.125 47.719,19.25C47.719,21.406 47.438,23.281 46.875,24.875C46.281,26.469 45.469,27.789 44.438,28.836C43.406,29.883 42.188,30.672 40.781,31.203C39.344,31.703 37.781,31.953 36.094,31.953C32.688,31.953 30.227,31.078 28.711,29.328C27.195,27.578 26.438,26.703 26.438,26.703L26.438,31.016Z" fill="#FFFFFF"/>
</svg>
