<svg width="48" height="42" viewBox="0 0 48 42" fill="none" xmlns="http://www.w3.org/2000/svg" xmlns:xlink="http://www.w3.org/1999/xlink">
<path d="M43.078,31.359C43.078,31.109 43.086,30.875 43.102,30.656C43.117,30.437 43.125,30.219 43.125,30C43.125,26.562 42.516,23.094 41.297,19.594C40.078,16.062 38.281,12.875 35.906,10.031C33.531,7.187 30.594,4.875 27.094,3.094C23.625,1.312 19.625,0.422 15.094,0.422C13.719,0.422 12.359,0.516 11.016,0.703C9.672,0.922 8.367,1.234 7.102,1.641C5.836,2.047 4.609,2.531 3.422,3.094C2.234,3.687 1.094,4.344 0,5.062C0.375,5.031 0.758,5 1.148,4.969C1.539,4.937 1.938,4.922 2.344,4.922C4.656,4.922 6.852,5.32 8.93,6.117C11.008,6.914 12.891,8 14.578,9.375C12.422,9.437 10.508,10.141 8.836,11.484C7.164,12.828 6.016,14.531 5.391,16.594C5.672,16.531 5.969,16.484 6.281,16.453C6.594,16.422 6.906,16.406 7.219,16.406C7.688,16.406 8.133,16.437 8.555,16.5C8.977,16.562 9.406,16.656 9.844,16.781C7.594,17.25 5.711,18.437 4.195,20.344C2.68,22.25 1.922,24.469 1.922,27C1.922,27 1.922,27.016 1.922,27.047C1.922,27.078 1.922,27.094 1.922,27.094C2.578,26.719 3.281,26.414 4.031,26.18C4.781,25.945 5.563,25.828 6.375,25.828C5.063,26.734 4.008,27.953 3.211,29.484C2.414,31.016 2.016,32.672 2.016,34.453C2.016,35.422 2.133,36.344 2.367,37.219C2.602,38.094 2.922,38.922 3.328,39.703C4.547,38.109 5.906,36.672 7.406,35.391C8.906,34.109 10.516,33 12.234,32.062C13.953,31.125 15.781,30.375 17.719,29.812C19.625,29.25 21.594,28.922 23.625,28.828C23.562,29.203 23.508,29.594 23.461,30C23.414,30.406 23.391,30.812 23.391,31.219C23.391,32.656 23.641,34 24.141,35.25C24.672,36.5 25.383,37.601 26.273,38.555C27.164,39.508 28.203,40.25 29.391,40.781C30.578,41.312 31.859,41.578 33.234,41.578C34.641,41.578 35.969,41.289 37.219,40.711C38.469,40.133 39.531,39.328 40.406,38.297C41.531,38.547 42.617,38.883 43.664,39.305C44.711,39.726 45.719,40.234 46.688,40.828C46.312,39.609 45.75,38.508 45,37.523C44.25,36.539 43.359,35.719 42.328,35.062C43.328,35.187 44.305,35.391 45.258,35.672C46.211,35.953 47.125,36.297 48,36.703C47.344,35.672 46.602,34.703 45.773,33.797C44.945,32.891 44.047,32.078 43.078,31.359Z" fill="#FFFFFF"/>
</svg>
