<svg width="24" height="24" viewBox="0 0 24 24" fill="none" xmlns="http://www.w3.org/2000/svg" xmlns:xlink="http://www.w3.org/1999/xlink">
<path d="M14.157,12.489L14.157,21.971C13.457,22.13 12.744,22.221 12.027,22.241L12.027,0.722C12.744,0.742 13.457,0.832 14.157,0.992L14.157,10.273L23.995,10.273C23.71,7.125 22.218,4.208 19.831,2.129C17.445,0.05 14.346,-1.03 11.181,-0.887C8.016,-0.745 5.028,0.61 2.839,2.896C0.65,5.181 -0.572,8.22 -0.572,11.381C-0.572,14.542 0.65,17.582 2.839,19.867C5.028,22.152 8.016,23.507 11.181,23.65C14.346,23.793 17.445,22.712 19.831,20.633C22.218,18.555 23.71,15.638 23.995,12.489L14.157,12.489ZM19.214,3.721C19.697,4.173 20.135,4.67 20.522,5.206L19.214,5.206L19.214,3.721ZM15.679,1.462C16.391,1.732 17.07,2.081 17.704,2.502L17.704,6.717L21.426,6.717C21.748,7.376 22.004,8.066 22.189,8.776L15.679,8.776L15.679,1.462ZM3.375,17.753L3.375,18.245C2.524,17.197 1.877,16.002 1.464,14.718C1.603,14.544 1.794,14.418 2.008,14.358C2.223,14.297 2.451,14.304 2.662,14.379C2.872,14.454 3.054,14.592 3.182,14.774C3.309,14.957 3.377,15.175 3.375,15.397L3.375,17.753ZM6.783,21.026C6.111,20.676 5.478,20.257 4.893,19.777L4.893,15.397C4.891,14.952 4.773,14.515 4.552,14.129C4.33,13.743 4.013,13.42 3.629,13.192C3.247,12.963 2.811,12.838 2.365,12.827C1.919,12.816 1.478,12.92 1.084,13.129C1.003,12.589 0.962,12.043 0.962,11.497C0.962,11.388 0.962,11.27 0.962,11.157C1.582,10.703 2.331,10.46 3.1,10.465C4.073,10.466 5.005,10.852 5.694,11.539C6.382,12.225 6.768,13.155 6.769,14.126L6.783,21.026ZM10.513,22.167C9.76,22.082 9.018,21.915 8.301,21.671L8.301,14.104C8.3,12.732 7.753,11.417 6.78,10.447C5.807,9.477 4.488,8.932 3.113,8.932C2.454,8.93 1.8,9.056 1.189,9.303C1.371,8.396 1.671,7.518 2.083,6.69C2.461,6.63 2.843,6.599 3.227,6.599C5.147,6.613 6.987,7.378 8.349,8.73C9.71,10.082 10.486,11.913 10.509,13.83L10.513,22.167ZM10.513,8.985C9.712,7.791 8.629,6.812 7.358,6.135C6.088,5.458 4.671,5.103 3.231,5.101L3.065,5.101C3.651,4.317 4.339,3.614 5.111,3.012C6.311,3.202 7.445,3.687 8.41,4.422L8.41,1.24C9.095,1.031 9.797,0.885 10.509,0.804L10.513,8.985ZM19.209,19.241L19.209,17.483L20.71,17.483C20.273,18.123 19.769,18.714 19.205,19.246L19.209,19.241ZM21.556,15.959L17.695,15.959L17.695,20.46C17.061,20.875 16.385,21.224 15.679,21.501L15.679,14L22.224,14C22.063,14.674 21.838,15.332 21.552,15.963L21.556,15.959Z" fill="#9D2235"/>
</svg>
