<svg width="10" height="10" viewBox="0 0 10 10" fill="none" xmlns="http://www.w3.org/2000/svg" xmlns:xlink="http://www.w3.org/1999/xlink">
<path d="M7.29,9.852L6.343,8.835C5.632,9.406 4.727,9.768 3.585,9.768C1.607,9.768 0.187,8.682 0.187,6.872C0.187,5.716 0.786,4.643 1.928,4.03C1.593,3.557 1.357,3.028 1.357,2.303C1.357,0.604 2.708,-0.496 4.365,-0.496C5.702,-0.496 6.886,0.228 7.415,1.565L6.022,2.359C5.758,1.565 5.145,1.092 4.365,1.092C3.585,1.092 2.958,1.593 2.958,2.345C2.958,2.986 3.334,3.418 3.808,3.933L6.217,6.537C6.454,6.05 6.621,5.479 6.733,4.81L8.125,5.604C7.972,6.328 7.708,7.067 7.304,7.693L8.585,9.1L7.29,9.852ZM5.298,7.735L2.875,5.117C2.109,5.493 1.83,6.147 1.83,6.746C1.83,7.651 2.485,8.264 3.669,8.264C4.309,8.264 4.852,8.069 5.298,7.735Z" fill="#300F2B"/>
</svg>
