<svg width="46" height="44" viewBox="0 0 46 44" fill="none" xmlns="http://www.w3.org/2000/svg" xmlns:xlink="http://www.w3.org/1999/xlink">
<path d="M32.628,33.43C32.628,32.255 32.384,31.138 31.898,30.078C31.411,29.018 30.73,28.087 29.856,27.285C28.983,26.483 27.959,25.839 26.784,25.352C25.61,24.865 24.335,24.621 22.96,24.621C21.585,24.621 20.31,24.865 19.136,25.352C17.961,25.839 16.937,26.483 16.063,27.285C15.19,28.087 14.509,29.018 14.022,30.078C13.535,31.138 13.292,32.255 13.292,33.43C13.292,34.604 13.535,35.721 14.022,36.781C14.509,37.87 15.19,38.815 16.063,39.617C16.937,40.419 17.961,41.049 19.136,41.508C20.31,41.995 21.585,42.238 22.96,42.238C24.335,42.238 25.61,41.995 26.784,41.508C27.959,41.049 28.983,40.419 29.856,39.617C30.73,38.815 31.411,37.87 31.898,36.781C32.384,35.721 32.628,34.604 32.628,33.43ZM22.96,22.859C24.536,22.859 26.011,23.146 27.386,23.719C28.789,24.263 30.007,25.015 31.038,25.975C32.069,26.934 32.886,28.059 33.487,29.348C34.089,30.637 34.39,31.997 34.39,33.43C34.39,34.891 34.089,36.266 33.487,37.555C32.886,38.815 32.069,39.925 31.038,40.885C30.007,41.844 28.789,42.611 27.386,43.184C26.011,43.728 24.536,44 22.96,44C21.384,44 19.909,43.728 18.534,43.184C17.131,42.611 15.913,41.844 14.882,40.885C13.851,39.925 13.034,38.815 12.433,37.555C11.831,36.266 11.53,34.891 11.53,33.43C11.53,31.997 11.831,30.637 12.433,29.348C13.034,28.059 13.851,26.934 14.882,25.975C15.913,25.015 17.131,24.263 18.534,23.719C19.909,23.146 21.384,22.859 22.96,22.859ZM43.198,5.586L43.198,1.762L2.722,1.762L2.722,5.586C2.722,6.273 2.879,6.947 3.194,7.605C3.509,8.264 3.968,8.909 4.569,9.539C5.2,10.198 5.959,10.814 6.847,11.387C7.735,11.96 8.723,12.475 9.812,12.934C10.871,13.421 11.989,13.85 13.163,14.223C14.338,14.566 15.498,14.86 16.644,15.104C17.789,15.347 18.907,15.526 19.995,15.641C21.084,15.784 22.072,15.855 22.96,15.855C23.848,15.855 24.836,15.784 25.925,15.641C27.013,15.526 28.131,15.347 29.276,15.104C30.422,14.86 31.582,14.566 32.757,14.223C33.931,13.85 35.049,13.421 36.108,12.934C37.197,12.475 38.185,11.96 39.073,11.387C39.961,10.814 40.72,10.198 41.351,9.539C41.952,8.909 42.411,8.264 42.726,7.605C43.041,6.947 43.198,6.273 43.198,5.586ZM0.96,0L44.96,0L44.96,5.586C44.96,7.563 44.172,9.296 42.597,10.785C41.021,12.275 39.102,13.528 36.839,14.545C34.576,15.562 32.17,16.328 29.62,16.844C27.099,17.359 24.879,17.617 22.96,17.617C21.041,17.617 18.821,17.359 16.3,16.844C13.75,16.328 11.344,15.562 9.081,14.545C6.818,13.528 4.899,12.275 3.323,10.785C1.748,9.296 0.96,7.563 0.96,5.586L0.96,0Z" fill="#7D7D7D"/>
</svg>
